<?xml version="1.0" encoding="utf-8"?>
<!-- Generator: Adobe Illustrator 23.1.1, SVG Export Plug-In . SVG Version: 6.00 Build 0)  -->
<svg version="1.1" id="Layer_1" xmlns="http://www.w3.org/2000/svg" xmlns:xlink="http://www.w3.org/1999/xlink" x="0px" y="0px"
	 viewBox="0 0 562.32 142.84" style="enable-background:new 0 0 562.32 142.84;" xml:space="preserve">
<style type="text/css">
	.st0{fill:#683F9A;}
	.st1{fill:#613394;}
	.st2{fill:#623395;}
	.st3{fill:#D5B03B;}
	.st4{fill:#D4B13B;}
	.st5{fill:#D4B13A;}
	.st6{fill:#5C2D92;}
	.st7{fill:#5E2D92;}
	.st8{fill:#D5B13B;}
	.st9{fill:#5A2A90;}
	.st10{fill:#D5B13C;}
	.st11{fill:#5B2B90;}
	.st12{fill:#653797;}
	.st13{fill:#653796;}
	.st14{fill:#633495;}
	.st15{fill:#643696;}
	.st16{fill:#D6B13D;}
	.st17{fill:#673A98;}
	.st18{fill:#603094;}
	.st19{fill:#643596;}
	.st20{fill:#F0EBF5;}
</style>
<g>
	<g>
		<path class="st0" d="M0,121.24c1.2-0.03,2.4-0.08,3.59-0.08c101.21,0,202.41,0,303.62,0c0.95,0,1.9,0,3.01,0
			c0.06,0.83,0.11,1.5,0.17,2.33c-0.76,0.07-1.37,0.15-1.98,0.18c-0.64,0.03-1.28,0.01-1.92,0.01c-100.57,0-201.14,0-301.7,0
			c-1.6,0-3.2-0.03-4.79-0.04C0,122.84,0,122.04,0,121.24z"/>
		<path class="st1" d="M434.21,142.84c-2.09-0.93-4.2-1.82-5.83-3.68c0.92-1.26,1.81-2.47,2.79-3.81c0.74,0.43,1.4,0.85,2.08,1.2
			c1.61,0.84,3.26,1.23,5.07,0.59c1.52-0.54,2.27-1.55,2.46-3.38c-0.85,0.31-1.49,0.57-2.15,0.77c-3.86,1.18-7.73-0.23-9.65-3.81
			c-2.5-4.67-2.56-9.54-0.17-14.27c1.99-3.94,6.35-5.42,10.44-3.83c0.59,0.23,1.15,0.53,1.8,0.83c1.84-1.46,3.87-0.97,6.09-0.71
			c0.06,1.15,0.15,2.17,0.16,3.18c0.01,5.6,0.01,11.19,0,16.79c-0.01,5.32-1.79,7.82-6.83,9.68c-0.19,0.07-0.33,0.28-0.5,0.43
			C438.05,142.84,436.13,142.84,434.21,142.84z M440.93,123.52C440.93,123.52,440.93,123.52,440.93,123.52
			c0.01-0.96-0.04-1.91,0.02-2.87c0.09-1.46-0.46-2.45-1.84-2.99c-1.44-0.56-2.93-0.27-3.94,0.83c-1.95,2.12-2.01,7.75-0.1,9.88
			c1.1,1.23,2.47,1.36,3.94,0.94c1.35-0.38,1.83-1.15,1.91-2.93C440.96,125.43,440.93,124.48,440.93,123.52z"/>
		<path class="st2" d="M562.32,134.68c-1.11,0.07-2.22,0.12-3.32,0.2c-4.23,0.29-6.65-1.88-6.75-6.15
			c-0.07-2.87-0.03-5.75-0.05-8.62c-0.01-0.78-0.07-1.57-0.11-2.47c-0.95-0.17-1.79-0.32-2.81-0.5c0-1.41,0-2.8,0-4.34
			c0.87-0.18,1.77-0.37,2.87-0.6c0-1.54,0-3.02,0-4.67c2.17,0,4.12,0,6.31,0c0,1.47,0,2.95,0,4.65c1.18,0.19,2.17,0.35,3.3,0.53
			c0,1.45,0,2.92,0,4.47c-1.01,0.15-1.93,0.28-3.1,0.46c0,3.47-0.04,6.89,0.02,10.3c0.02,1.01,0.67,1.58,1.75,1.54
			c0.63-0.03,1.27-0.04,1.9-0.07C562.32,131.16,562.32,132.92,562.32,134.68z"/>
		<path class="st3" d="M197.51,99.47c-6.23,0-12.03,0-17.8,0c-0.81-3.86-1.06-64.51-0.24-68.43c5.47-0.16,11-0.06,16.64-0.07
			c0.26,2.04,0.49,3.85,0.73,5.71c1.34,0.34,2.07-0.68,2.87-1.34c3.56-2.88,7.55-4.8,12.08-5.49c4.49-0.69,8.93-0.39,13.25,1.05
			c2.87,0.96,5.27,2.64,7.16,5.03c0.84,1.06,1.68,2.11,2.63,3.3c0.73-0.71,1.37-1.29,1.97-1.92c5.06-5.38,11.3-7.96,18.66-7.7
			c2.46,0.09,4.96,0.32,7.35,0.87c6.26,1.44,10.37,5.43,12.58,11.39c1.34,3.62,2,7.4,2.01,11.27c0.02,14.63,0.04,29.27,0.05,43.9
			c0,0.71-0.08,1.41-0.12,2.08c-2.33,0.52-16.15,0.46-18.23-0.11c0-1.91,0-3.89,0-5.88c0-11.75,0.02-23.51-0.02-35.26
			c-0.01-2.15-0.19-4.31-0.47-6.44c-0.5-3.77-3.07-6.21-6.86-6.53c-1.82-0.15-3.67-0.19-5.48,0c-5.14,0.53-8.86,4.75-8.86,9.87
			c0,13.91,0,27.83,0,41.74c0,0.86,0,1.72,0,2.93c-6.19,0.06-12.14,0.02-18.36,0.03c-0.05-1.14-0.13-2.07-0.13-2.99
			c-0.02-13.43-0.01-26.87-0.07-40.3c-0.01-1.9-0.18-3.84-0.58-5.7c-0.58-2.69-2.24-4.54-4.99-5.28c-3.25-0.87-6.48-0.88-9.67,0.22
			c-4,1.38-6.07,4.25-6.07,8.45c-0.01,14.15,0,28.31-0.01,42.46C197.51,97.29,197.51,98.23,197.51,99.47z"/>
		<path class="st4" d="M560.16,99.42c-5.47,0-10.79,0-16.29,0c-0.32-1.87-0.63-3.64-1-5.81c-1.01,0.63-1.95,1.02-2.65,1.68
			c-9.77,9.32-28.45,7.53-36.52-6.98c-2.28-4.1-3.8-8.44-4.47-13.08c-1.17-8.05-1.28-16.08,0.74-24.04
			c1.68-6.6,4.73-12.36,10.15-16.7c3.75-3,8.06-4.48,12.79-4.87c5.97-0.5,11.42,0.86,16.24,4.53c0.57,0.43,1.21,0.77,1.83,1.12
			c0.11,0.06,0.3-0.01,0.71-0.04c0-10.8,0-21.63,0-32.71c6.25-0.64,12.26-0.9,18.27-0.22C560.43,4.06,560.64,94.61,560.16,99.42z
			 M541.77,65.32c0-3.91-0.05-7.82,0.02-11.73c0.03-1.88-0.6-3.43-1.79-4.8c-3.12-3.6-7.21-4.49-11.7-4.07
			c-3.98,0.38-6.77,2.6-8.58,6.09c-0.44,0.85-0.88,1.72-1.1,2.64c-0.63,2.63-1.37,5.26-1.65,7.94c-0.63,5.94-0.07,11.79,2.16,17.39
			c1.31,3.3,3.62,5.61,7.04,6.68c4.63,1.45,8.85,0.47,12.61-2.44c2.05-1.59,3.12-3.71,3.03-6.44
			C541.68,72.83,541.78,69.07,541.77,65.32z"/>
		<path class="st5" d="M421.8,35.79c0-11.53,0-22.38,0-33.41c6.18,0,12.2,0,18.45,0c0.06,0.81,0.17,1.58,0.17,2.36
			c0.01,11.51,0.04,23.01-0.04,34.52c-0.01,1.46-0.38,3.04-1,4.36c-3.21,6.76-4.69,13.86-4.7,21.33c-0.01,6.2,0.48,12.28,2.85,18.09
			c0.3,0.74,0.52,1.54,0.96,2.19c2.97,4.36,1.68,9.21,1.92,14.08c-5.64,0-11.03,0-16.61,0c-0.34-1.91-0.67-3.77-1.07-6
			c-1.06,0.81-1.9,1.37-2.64,2.04c-9.81,8.84-26.21,7.03-34.38-3.98c-3.5-4.72-5.52-10.06-6.51-15.8
			c-1.44-8.36-1.34-16.69,0.85-24.93c1.48-5.59,4.05-10.56,8.24-14.64c7.71-7.5,20.77-8.68,29.65-2.64
			C419.02,34.11,420.17,34.78,421.8,35.79z M421.78,65.31c0,0-0.01,0-0.01,0c0-3.51,0-7.02,0-10.54c0-0.08,0-0.16,0-0.24
			c-0.01-4.72-2.72-8.23-7.36-9.21c-1.85-0.39-3.8-0.34-5.7-0.48c-2.66-0.2-4.8,0.92-6.66,2.71c-2.33,2.24-3.51,5.1-4.25,8.17
			c-1.4,5.83-1.41,11.72-0.4,17.58c0.51,2.98,1.43,5.92,3.3,8.39c4.75,6.27,14.78,5.34,19.22,0.15c1.27-1.49,1.93-3.24,1.88-5.28
			C421.72,72.81,421.78,69.06,421.78,65.31z"/>
		<path class="st6" d="M74.01,56.47c0.27-0.4,0.5-0.83,0.8-1.19c5.68-6.71,11.41-13.39,17.03-20.15c1.74-2.09,3.7-2.97,6.44-2.87
			c4.95,0.19,9.91,0.07,14.87,0.07c0.88,0,1.75,0,3.14,0c-1.36,1.97-2.79,3.4-4.08,4.93c-1.34,1.59-2.72,3.15-4.08,4.72
			c-1.36,1.57-2.72,3.14-4.08,4.71c-1.36,1.57-2.72,3.14-4.08,4.71c-1.36,1.57-2.72,3.15-4.07,4.72c-1.35,1.57-2.71,3.13-4.13,4.78
			c0.57,0.91,1.04,1.73,1.57,2.51c3.69,5.51,7.42,11,11.07,16.54c0.96,1.46,1.83,3.01,2.5,4.62c2.05,4.95,4.97,9.28,8.8,13.02
			c0.95,0.92,1.8,1.94,3,3.26c-1.26,0.09-2.03,0.18-2.79,0.19c-5.2,0.03-10.39-0.04-15.59,0.08c-2.1,0.05-3.41-0.74-4.51-2.49
			c-4.76-7.58-9.6-15.11-14.43-22.65c-0.47-0.73-0.98-1.43-1.42-2.07c-2.09,1.97-4.18,3.8-6.08,5.82c-0.5,0.53-0.53,1.64-0.54,2.48
			c-0.06,5.36-0.06,10.71-0.08,16.07c0,0.78,0,1.56,0,2.5c-6.11,0-11.98,0-17.85,0C54.89,98.85,54.64,12.1,55.13,4
			c1.6-0.49,14.17-0.65,18.11-0.2c0,17.42,0,34.87,0,52.32C73.5,56.25,73.76,56.36,74.01,56.47z"/>
		<path class="st7" d="M171.93,72.71c-14.45,0-28.81,0-43.41,0c0.08,0.89,0.01,1.61,0.22,2.24c2.81,8.58,8.23,13,18.03,12.46
			c6.3-0.35,9.02-1.87,15.04-7.46c2.91,3.25,5.82,6.49,8.9,9.93c-0.82,1.02-1.54,2.05-2.39,2.96c-4.9,5.26-11.15,7.87-18.08,9.07
			c-7.27,1.26-14.33,0.51-21.14-2.37c-9.91-4.2-16.11-11.53-18.33-22.1c-1.92-9.11-1.57-18.09,1.88-26.85
			c4.9-12.43,14.85-19.01,28.32-19.61c4.28-0.19,8.44,0.43,12.48,1.88c6.89,2.49,11.88,7.03,15.03,13.63
			c2.34,4.91,3.47,10.11,3.6,15.52c0.08,3.12,0.03,6.23,0.02,9.35C172.11,71.77,172.01,72.15,171.93,72.71z M154.48,59.83
			c-0.53-2.48-0.92-4.82-1.55-7.09c-0.52-1.88-1.72-3.4-3.34-4.54c-3.26-2.3-6.85-2.96-10.68-1.96c-5.69,1.48-9.86,7.09-10.2,13.59
			C137.21,59.83,145.71,59.83,154.48,59.83z"/>
		<path class="st8" d="M372.19,99.37c-6.06,0-11.95,0-17.98,0c-0.08-0.59-0.19-1.12-0.22-1.64c-0.04-0.64-0.01-1.28-0.01-1.92
			c-0.07-13.51-0.11-27.02-0.23-40.52c-0.02-1.74-0.17-3.54-0.68-5.19c-0.97-3.13-3.34-4.82-6.56-5.15
			c-1.74-0.18-3.51-0.14-5.27-0.12c-3.84,0.04-6.69,1.93-8.84,4.95c-0.52,0.73-0.73,1.74-0.91,2.65c-0.15,0.77-0.06,1.59-0.06,2.39
			c0,13.91,0,27.82,0,41.73c0,0.86,0,1.72,0,2.75c-6.13,0-11.99,0-17.82,0c-0.96-4.58-1.06-65.17-0.11-68.18c5.46,0,10.96,0,16.64,0
			c0.29,2.07,0.58,4.08,0.91,6.45c1.31-0.99,2.34-1.72,3.32-2.5c7.87-6.21,16.61-6.92,25.83-3.9c4.32,1.42,7.25,4.59,9.17,8.65
			c1.79,3.8,2.88,7.84,2.9,12.03c0.1,15.43,0.06,30.86,0.07,46.29C372.34,98.46,372.27,98.78,372.19,99.37z"/>
		<path class="st4" d="M492.56,78.62c3.32,3.63,4.04,8.5,6.13,12.92c-1.17,1.04-2.16,2.07-3.3,2.91
			c-5.15,3.81-11.01,5.63-17.34,6.29c-6.69,0.7-13.06-0.27-19.17-2.99c-9.42-4.18-15.25-11.35-17.48-21.41
			c-1.96-8.85-1.72-17.6,1.42-26.18c4.76-13.06,15.41-20.55,29.3-20.64c6.98-0.05,13.51,1.46,19.1,5.83
			c1.81,1.41,3.31,3.22,4.92,4.88c0.92,0.95,1.07,1.99,0.51,3.29c-3.08,7.09-4.03,14.58-3.87,22.25c0.04,1.73,0.01,3.47,0.01,5.46
			c-5.76,0-11.26,0-16.75,0c-5.51,0-11.01,0-16.74,0c0,0.75-0.1,1.36,0.01,1.94c1.35,6.86,7.18,11.92,14.18,12.66
			c7,0.74,12.93-1.21,17.78-6.34c0.22-0.23,0.46-0.44,0.72-0.63C492.07,78.77,492.24,78.74,492.56,78.62z M484.58,58.32
			c0-1.09,0.1-1.97-0.02-2.82c-0.62-4.7-2.46-8.61-7.3-10.31c-3.36-1.18-6.74-1.08-10.03,0.35c-4.92,2.14-8.23,7.73-7.46,12.77
			C467.93,58.32,476.1,58.32,484.58,58.32z"/>
		<path class="st9" d="M22.53,100.84c-5.95,0-11.75,0-17.7,0c0-32.35,0-64.6,0-97.02c5.82,0,11.68,0,17.7,0
			C22.53,36.08,22.53,68.32,22.53,100.84z"/>
		<path class="st10" d="M303.54,31.14c0,22.68,0,45.26,0,67.85c-1.59,0.6-14.2,0.79-17.95,0.25c0-22.62,0-45.27,0-68.1
			C291.53,31.14,297.46,31.14,303.54,31.14z"/>
		<path class="st11" d="M48.4,100.84c-5.93,0-11.73,0-17.68,0c0-22.78,0-45.44,0-68.23c5.88,0,11.68,0,17.48,0
			C48.69,34.3,48.9,96.3,48.4,100.84z"/>
		<path class="st12" d="M358.97,134.16c-2.08,0-4.04,0-6.29,0c0-0.87,0-1.64,0-2.42c-0.01-3.84-0.01-7.67-0.03-11.51
			c-0.01-1.1-0.31-2.09-1.42-2.56c-1.11-0.47-2.21-0.33-3.19,0.35c-0.95,0.66-1.15,1.66-1.15,2.75c0,3.6-0.02,7.19-0.03,10.79
			c0,0.79,0,1.57,0,2.54c-2.11,0-4.06,0-6.3,0c-0.08-0.76-0.23-1.59-0.24-2.42c-0.03-3.2-0.01-6.4-0.02-9.59
			c0-0.8,0.01-1.61-0.12-2.39c-0.24-1.53-1.17-2.29-2.6-2.27c-1.57,0.02-2.73,0.85-2.99,2.23c-0.12,0.62-0.08,1.27-0.09,1.91
			c-0.01,3.36,0,6.72,0,10.07c0,0.78,0,1.56,0,2.47c-2.17,0-4.12,0-6.22,0c0-7.15,0-14.22,0-21.46c2.23-0.07,4.43-0.66,6.42,0.82
			c5.5-2.17,6.96-2.06,11.02,0.96c0.46-0.3,0.98-0.62,1.48-0.97c2.11-1.47,4.48-1.74,6.89-1.25c2.6,0.54,4.11,2.36,4.73,4.88
			c0.24,1,0.33,2.06,0.34,3.09c0.04,4,0.02,7.99,0.01,11.99C359.16,132.8,359.04,133.42,358.97,134.16z"/>
		<path class="st13" d="M490.04,114.67c2.1-1.94,4.41-2.81,7.12-2.64c3.48,0.21,5.99,2.39,6.09,5.85c0.15,5.34,0.04,10.7,0.04,16.25
			c-2,0-3.94,0-6.23,0c0-0.93,0-1.86,0-2.8c-0.01-3.76,0.03-7.52-0.04-11.27c-0.03-1.63-0.8-2.37-2.28-2.59
			c-1.42-0.21-2.59,0.37-3.09,1.68c-0.25,0.65-0.34,1.39-0.36,2.1c-0.06,2.16-0.05,4.32-0.05,6.48c-0.01,2.07,0,4.14,0,6.33
			c-2.16,0.48-4.18,0.26-6.41,0.19c-0.06-1-0.15-1.85-0.16-2.71c-0.02-3.2,0-6.4-0.01-9.59c0-0.72,0.02-1.45-0.09-2.15
			c-0.22-1.51-1.16-2.34-2.54-2.37c-1.62-0.03-2.88,0.9-3.11,2.39c-0.1,0.62-0.04,1.28-0.04,1.91c0,4.07,0,8.13,0,12.38
			c-2.08,0-4.02,0-6.17,0c-0.5-7.1-0.59-14.16-0.03-21.33c2.01-0.27,3.85-0.9,5.67,0.29c0.33,0.22,0.91,0.12,1.36,0.07
			c0.47-0.06,0.93-0.23,1.38-0.37C484.4,111.75,487.57,111.48,490.04,114.67z"/>
		<path class="st14" d="M417.37,120.54c0.39-2.17,0.16-2.81-1.09-3.35c-1.28-0.55-2.3-0.33-3.29,1.1c-0.64,0.92-1.31,1.25-2.36,1.19
			c-1.34-0.07-2.69-0.02-4.1-0.02c-0.51-1.37-0.26-2.55,0.49-3.48c0.78-0.97,1.72-1.94,2.79-2.55c3.09-1.74,6.43-1.92,9.72-0.73
			c2.95,1.07,4.73,3.18,4.75,6.5c0.01,2.71-0.04,5.43,0.08,8.14c0.1,2.29,0.4,4.58,0.64,7.15c-1.53,0-3.14,0.35-4.49-0.08
			c-1.96-0.63-3.62-0.28-5.48,0.25c-2.89,0.81-5.57,0.06-7.68-2.14c-3.31-3.46-1.94-9.12,2.61-10.78c1.19-0.43,2.47-0.66,3.72-0.86
			C414.84,120.69,416.04,120.65,417.37,120.54z M417.61,124.75c-1.4,0.19-2.68,0.26-3.89,0.57c-1.15,0.3-1.69,1.28-1.56,2.35
			c0.13,1.08,0.88,1.73,2.12,1.84C416.95,129.75,418.08,128.25,417.61,124.75z"/>
		<path class="st15" d="M469.66,125.94c-4.2,0-8.26,0-12.32,0c0.12,2.28,1.55,3.74,3.91,3.49c1.82-0.2,3.56-1.11,5.68-1.83
			c0.72,0.79,1.73,1.89,2.83,3.1c-0.55,0.6-0.97,1.18-1.5,1.63c-3.69,3.15-7.87,3.33-12.14,1.64c-4.09-1.62-5.94-5.02-5.97-9.26
			c-0.02-2.19,0.27-4.5,0.99-6.56c1.5-4.29,5.85-6.62,10.56-6.08c4.45,0.51,7.37,3.44,8.12,8.12
			C470.11,122,470.29,123.81,469.66,125.94z M457.33,120.91c2.09,0,4.03,0,5.97,0c-0.14-2.54-1.01-3.55-2.93-3.54
			C458.48,117.38,457.52,118.44,457.33,120.91z"/>
		<path class="st14" d="M362.57,119.16c0.31-3.8,2.59-6.14,6.79-6.96c2.58-0.5,5.1-0.21,7.48,0.93c2.17,1.04,3.52,2.73,3.72,5.18
			c0.12,1.51,0.16,3.03,0.19,4.54c0.03,1.92-0.07,3.84,0.04,5.75c0.11,1.89,0.41,3.77,0.64,5.75c-2.18,0.15-4.28,0.61-6.38-0.38
			c-0.51-0.24-1.36-0.04-1.96,0.21c-2.42,0.99-4.82,1.04-7.2-0.05c-2.62-1.2-4.16-3.78-3.98-6.55c0.19-2.93,1.83-5.02,4.76-5.91
			c1.22-0.37,2.48-0.62,3.73-0.82c1.17-0.19,2.35-0.23,3.57-0.35c0.31-1.47,0.1-2.63-1.29-3.3c-1.24-0.6-2.35-0.37-3.31,1
			c-0.71,1-1.49,1.28-2.61,1.21c-1.19-0.07-2.39-0.03-3.59-0.05C363.03,119.37,362.88,119.27,362.57,119.16z M374,124.96
			c-0.78,0-1.47-0.02-2.16,0.01c-0.47,0.02-0.96,0.05-1.41,0.17c-1.3,0.36-2.08,1.48-1.9,2.63c0.19,1.2,1.2,1.91,2.67,1.73
			C373.51,129.23,374.9,128.19,374,124.96z"/>
		<path class="st15" d="M525.83,125.92c-2.27,0-4.33,0-6.4,0c-1.99,0-3.97,0-6,0c-0.32,1.62,0.54,2.41,1.63,2.97
			c2.85,1.45,5.23,0.31,7.55-1.7c1.09,1.17,2.1,2.26,3.16,3.4c-2.32,3.67-5.84,4.56-9.62,4.38c-5.85-0.27-9.87-4.63-9.91-10.51
			c-0.01-1.58,0.1-3.21,0.46-4.74c1.45-6.31,8.21-9.53,14.09-6.83c1.89,0.87,3.33,2.22,4.18,4.1
			C526.21,119.75,526.53,122.63,525.83,125.92z M519.46,121.06c-0.22-2.76-1.21-3.82-3.24-3.67c-1.9,0.14-2.87,1.46-2.63,3.67
			C515.49,121.06,517.39,121.06,519.46,121.06z"/>
		<path class="st16" d="M294.87,3.65c0.12,0.01,0.77,0,1.4,0.08c5.09,0.59,8.23,3.94,8.5,8.73c0.33,5.81-3.65,9.32-7.92,10.03
			c-2.03,0.34-3.95,0.35-5.89-0.25c-4.63-1.42-7.48-5.79-6.82-10.49c0.64-4.59,4.46-7.92,9.26-8.1
			C293.71,3.64,294.03,3.65,294.87,3.65z"/>
		<path class="st17" d="M534.91,134.36c-2.27,0-4.23,0-6.32,0c0-7.28,0-14.35,0-21.71c2.24,0.21,4.51-0.84,6.29,0.73
			c1.92-0.47,3.67-1.18,5.44-1.26c4.19-0.19,6.92,2.29,7.05,6.46c0.16,5.1,0.04,10.21,0.04,15.42c-2.04,0.58-4,0.14-6.16,0.32
			c-0.08-1.27-0.21-2.35-0.22-3.44c-0.03-3.36,0.03-6.71-0.05-10.07c-0.03-1.25-0.11-2.59-1.65-3.15c-2.15-0.79-4.09,0.33-4.34,2.63
			c-0.11,1.03-0.07,2.08-0.07,3.11C534.9,127,534.91,130.59,534.91,134.36z"/>
		<path class="st18" d="M49.22,14.46c0,0.16-0.03,0.32,0,0.48c1.23,6.64-5.69,9.62-10.31,9.21c-0.56-0.05-1.11-0.17-1.65-0.27
			c-4.93-0.97-7.86-4.33-7.95-9.08c-0.09-4.84,2.61-8.33,7.48-9.47c3.24-0.76,6.34-0.34,9.2,1.5c2.27,1.46,3.53,3.42,3.28,6.2
			c-0.04,0.48-0.01,0.96-0.01,1.44C49.24,14.46,49.23,14.46,49.22,14.46z"/>
		<path class="st19" d="M390.46,113.34c2.15-0.47,3.98-1.16,5.83-1.21c3.85-0.11,6.49,2.22,6.65,6.06
			c0.22,5.24,0.06,10.51,0.06,15.92c-2.08,0-4.02,0-6.15,0c-0.05-0.92-0.13-1.78-0.14-2.63c-0.02-3.11,0-6.23-0.01-9.34
			c0-0.72,0.01-1.45-0.12-2.15c-0.35-1.95-1.3-2.7-3.1-2.55c-1.86,0.15-2.94,1.19-2.97,3.07c-0.05,3.59-0.01,7.18,0,10.78
			c0,0.87,0,1.74,0,2.72c-2.1,0.76-4.1,0.61-6.23,0.27c0-7.22,0-14.3,0-21.68C386.48,112.91,388.69,111.79,390.46,113.34z"/>
		<path class="st20" d="M457.33,120.91c0.19-2.47,1.15-3.54,3.04-3.54c1.92-0.01,2.78,1,2.93,3.54
			C461.36,120.91,459.42,120.91,457.33,120.91z"/>
		<path class="st20" d="M519.46,121.06c-2.07,0-3.98,0-5.87,0c-0.24-2.21,0.73-3.53,2.63-3.67
			C518.25,117.24,519.25,118.29,519.46,121.06z"/>
	</g>
</g>
</svg>
