<?xml version="1.0" encoding="utf-8"?>
<!-- Generator: Adobe Illustrator 23.1.1, SVG Export Plug-In . SVG Version: 6.00 Build 0)  -->
<svg version="1.1" id="Layer_1" xmlns="http://www.w3.org/2000/svg" xmlns:xlink="http://www.w3.org/1999/xlink" x="0px" y="0px"
	 viewBox="0 0 562.32 672.34" style="enable-background:new 0 0 562.32 672.34;" xml:space="preserve">
<style type="text/css">
	.st0{fill:#683F9A;}
	.st1{fill:#613394;}
	.st2{fill:#623395;}
	.st3{fill:#5A2A90;}
	.st4{fill:#D6B13E;}
	.st5{fill:#D5B03B;}
	.st6{fill:#D4B13B;}
	.st7{fill:#D4B13A;}
	.st8{fill:#5C2D92;}
	.st9{fill:#5E2D92;}
	.st10{fill:#D5B13B;}
	.st11{fill:#D5B13C;}
	.st12{fill:#5B2B90;}
	.st13{fill:#653797;}
	.st14{fill:#653796;}
	.st15{fill:#633495;}
	.st16{fill:#643696;}
	.st17{fill:#D6B13D;}
	.st18{fill:#673A98;}
	.st19{fill:#603094;}
	.st20{fill:#643596;}
	.st21{fill:#F0EBF5;}
</style>
<g>
	<g>
		<path class="st0" d="M0,650.74c1.2-0.03,2.4-0.08,3.59-0.08c101.21,0,202.41,0,303.62,0c0.95,0,1.9,0,3.01,0
			c0.06,0.83,0.11,1.5,0.17,2.33c-0.76,0.07-1.37,0.15-1.98,0.18c-0.64,0.03-1.28,0.01-1.92,0.01c-100.57,0-201.14,0-301.7,0
			c-1.6,0-3.2-0.03-4.79-0.04C0,652.34,0,651.54,0,650.74z"/>
		<path class="st1" d="M434.21,672.34c-2.09-0.93-4.2-1.82-5.83-3.68c0.92-1.26,1.81-2.47,2.79-3.81c0.74,0.43,1.4,0.85,2.08,1.2
			c1.61,0.84,3.26,1.23,5.07,0.59c1.52-0.54,2.27-1.55,2.46-3.38c-0.85,0.31-1.49,0.57-2.15,0.77c-3.86,1.18-7.73-0.23-9.65-3.81
			c-2.5-4.67-2.56-9.54-0.17-14.27c1.99-3.94,6.35-5.42,10.44-3.83c0.59,0.23,1.15,0.53,1.8,0.83c1.84-1.46,3.87-0.97,6.09-0.71
			c0.06,1.15,0.15,2.17,0.16,3.18c0.01,5.6,0.01,11.19,0,16.79c-0.01,5.32-1.79,7.82-6.83,9.68c-0.19,0.07-0.33,0.28-0.5,0.43
			C438.05,672.34,436.13,672.34,434.21,672.34z M440.93,653.02C440.93,653.02,440.93,653.02,440.93,653.02
			c0.01-0.96-0.04-1.91,0.02-2.87c0.09-1.46-0.46-2.45-1.84-2.99c-1.44-0.56-2.93-0.27-3.94,0.83c-1.95,2.12-2.01,7.75-0.1,9.88
			c1.1,1.23,2.47,1.36,3.94,0.94c1.35-0.38,1.83-1.15,1.91-2.93C440.96,654.93,440.93,653.98,440.93,653.02z"/>
		<path class="st2" d="M562.32,664.18c-1.11,0.07-2.22,0.12-3.32,0.2c-4.23,0.29-6.65-1.88-6.75-6.15
			c-0.07-2.87-0.03-5.75-0.05-8.62c-0.01-0.78-0.07-1.57-0.11-2.47c-0.95-0.17-1.79-0.32-2.81-0.5c0-1.41,0-2.8,0-4.34
			c0.87-0.18,1.77-0.37,2.87-0.6c0-1.54,0-3.02,0-4.67c2.17,0,4.12,0,6.31,0c0,1.47,0,2.95,0,4.65c1.18,0.19,2.17,0.35,3.3,0.53
			c0,1.45,0,2.92,0,4.47c-1.01,0.15-1.93,0.28-3.1,0.46c0,3.47-0.04,6.89,0.02,10.3c0.02,1.01,0.67,1.58,1.75,1.54
			c0.63-0.03,1.27-0.04,1.9-0.07C562.32,660.66,562.32,662.42,562.32,664.18z"/>
		<path class="st3" d="M463.45,209.15c-1.35,4.19-0.87,8.28-0.31,12.29c0.78,5.53,1.82,11.03,2.99,16.49
			c2.16,10.07,7.74,18.06,15.99,24c9.29,6.69,19.2,12.37,29.93,16.54c2.68,1.04,5.35,2.1,7.98,3.26
			c5.85,2.58,10.23,6.76,13.19,12.41c3.24,6.19,5.42,12.64,4.66,19.77c-1.28,12.15-6.87,21.62-17.45,27.96
			c-4.23,2.54-8.83,3.62-13.76,3.37c-1.35-0.07-2.7-0.14-4.61-0.25c0.77,0.97,1.27,1.62,1.79,2.25c3.59,4.4,7.29,8.71,10.75,13.2
			c4.65,6.05,7.69,12.86,8.97,20.42c1.66,9.88-0.65,18.7-6.93,26.5c-3.97,4.92-8.72,8.97-14.29,11.88
			c-4.52,2.36-9.23,4.4-13.95,6.34c-5.66,2.33-11.54,2.13-17.46,1.09c-14.21-2.5-27.08-7.94-38.19-17.28
			c-4.81-4.04-9.08-8.55-12.13-14.1c-2.09-3.82-3.55-7.85-4.22-12.16c-0.16-1-0.39-1.98-0.69-3.44c-0.95,0.98-1.71,1.64-2.31,2.42
			c-4.67,6.09-6.86,18.02,1.93,25.66c2.63,2.29,5.59,4.27,8.61,6.04c5.03,2.94,10.26,5.55,15.35,8.39c4.49,2.5,8.67,5.44,12.13,9.3
			c6.75,7.54,8.72,16.35,5.81,25.89c-3.82,12.52-10.92,22.88-22.14,30.05c-6.43,4.11-13.52,6.47-21.03,7.6
			c-8.49,1.28-16.88,1.02-25.14-1.55c-9.01-2.81-16.54-7.94-22.82-14.88c-8.59-9.49-14.54-20.37-17.03-33.03
			c-1.46-7.42-0.93-14.65,1.95-21.64c1.77-4.28,3.77-8.46,5.69-12.68c2.02-4.44,3.87-8.95,4.76-13.78c0.22-1.17,0.34-2.38,0.29-3.57
			c-0.09-2.38-1.47-3.58-3.82-3.03c-1.83,0.42-3.77,1.05-5.26,2.13c-2.17,1.58-4.2,3.47-5.9,5.55c-5.61,6.89-8.82,14.95-10.88,23.51
			c-3.75,15.54-1.48,30.12,6.96,43.73c3.5,5.64,6.96,11.29,10.41,16.96c1.43,2.34,2.44,4.87,2.69,7.62
			c0.52,5.61-1.6,9.97-6.28,13.11c-3.51,2.35-7.41,3.72-11.47,4.69c-9.24,2.23-18.65,2.78-28.1,2.39
			c-8.14-0.34-16.28-0.96-24.41-1.47c-0.46-0.03-0.91-0.21-1.62-0.38c0-0.88,0-1.74,0-2.59c-0.01-16.15-0.03-32.31-0.04-48.46
			c-0.02-37.27-0.03-74.53-0.04-111.8c-0.01-19.83-0.02-39.66-0.04-59.5c-0.02-19.43-0.04-38.86-0.06-58.3
			c-0.02-19.35-0.05-38.7-0.08-58.06c-0.04-19.91-0.1-39.82-0.12-59.73c-0.04-35.11-0.07-70.21-0.1-105.32c0-0.71,0-1.42,0-2.35
			c1.9-0.36,3.67-0.87,5.47-0.99c16.5-1.16,32.92-0.67,49.14,2.83c16.15,3.48,28.06,12.63,35.62,27.33
			c2.55,4.96,3.8,10.32,4.24,15.87c0.04,0.53,0.08,1.07,0.15,2.07c0.67-0.74,1.12-1.13,1.44-1.6c1.34-1.99,2.58-4.05,3.97-6
			c8.49-11.98,20.24-16.82,34.66-15.81c17.18,1.21,36.84,14.2,41.85,38.09c0.94,4.49,1.19,9.02,1.07,13.59
			c-0.07,2.55-1.01,4.68-2.91,6.34c-1.26,1.1-2.6,2.13-3.99,3.06c-3.78,2.51-6.59,5.81-8.19,10.06c-2.17,5.76-4.18,11.58-4.94,17.73
			c-0.27,2.2-0.23,4.44-0.32,6.52c1.33,1.01,2.53,0.85,3.67,0.46c1.36-0.47,2.72-0.98,3.97-1.65c6.31-3.41,11.11-8.29,14.1-14.85
			c1.27-2.8,1.89-5.76,1.86-8.84c-0.02-2.4-0.09-4.8-0.06-7.2c0.04-3.92,1.38-5.86,5.05-7.28c4.74-1.84,9.65-2.4,14.6-1.2
			c11.8,2.85,21.23,9.06,27.19,19.92c2.84,5.18,4.61,10.73,4.83,16.66c0.2,5.21-1.02,10.16-3.4,14.79c-0.95,1.84-2.09,3.59-3.2,5.34
			c-1.77,2.78-4.4,4.1-7.63,4.28c-2.87,0.16-5.75,0.31-8.62,0.4c-4.83,0.15-8.38,2.37-10.7,6.55c-2.79,5.03-3.3,10.44-2.58,16.05
			c0.01,0.12,0.21,0.21,0.66,0.64c0.23-0.39,0.43-0.83,0.71-1.2c6.26-8.13,14.53-10.55,24.3-8.33
			c17.58,3.98,30.89,18.94,32.51,36.87c0.8,8.81-2.62,15.39-10.28,19.5c-0.83,0.45-1.67,0.87-2.89,1.51
			c0.74,0.36,1.09,0.6,1.48,0.72c8.35,2.7,13.24,8.55,15.44,16.88c1.72,6.52,1.65,12.97-0.73,19.32
			c-3.35,8.9-9.86,13.91-19.17,15.36c-15.01,2.34-27.15-2.79-36.83-14.24c-3.58-4.24-6.53-8.89-8.78-13.96
			c-3.99-8.98-7.93-17.98-11.9-26.97C464.15,210.53,463.79,209.84,463.45,209.15z"/>
		<path class="st4" d="M56.88,344.12c-3.93,0.22-7.58,0.16-11.2-0.68c-5.2-1.2-9.62-3.81-13.38-7.57
			c-5.93-5.94-10.15-12.84-10.91-21.33c-1.07-12.02,3.19-28.48,19.72-34.97c6.09-2.39,12.1-5.03,17.99-7.88
			c7.35-3.56,14.32-7.83,20.6-13.09c7.52-6.3,12.12-14.35,13.85-24c1.05-5.89,1.97-11.81,2.76-17.75c0.31-2.36,0.14-4.78,0.12-7.18
			c0-0.52-0.25-1.03-0.53-2.1c-0.62,1.3-1.04,2.12-1.42,2.97c-4.12,9.27-8.18,18.58-12.36,27.82c-2.66,5.88-6.4,11.04-10.87,15.69
			c-6.3,6.56-14.07,10.05-22.95,11.41c-5.24,0.8-10.35,0.43-15.36-1.3c-8.95-3.1-14.27-9.4-16.12-18.61
			c-1.3-6.5-0.74-12.87,1.83-19.04c2.47-5.93,6.65-10.07,12.65-12.37c0.74-0.29,1.48-0.59,2.21-0.91c0.13-0.06,0.21-0.22,0.37-0.4
			c-0.57-0.33-1.1-0.67-1.66-0.96c-8.53-4.43-12.16-10.85-11.04-20.35c0.88-7.49,3.43-14.45,7.92-20.59
			c6.34-8.66,15.11-13.67,25.34-16.15c6.14-1.49,12.13-0.52,17.47,2.98c1.91,1.25,3.48,3.03,5.18,4.6c0.62,0.57,1.17,1.23,1.96,2.07
			c0.22-0.91,0.42-1.43,0.45-1.96c0.31-4.95-0.31-9.7-2.63-14.18c-2.37-4.56-6.15-6.79-11.16-7.06c-2.07-0.11-4.16-0.05-6.24-0.06
			c-4.79-0.01-8.4-2.02-10.95-6.12c-7.86-12.67-7.07-27.11,2.25-39.43c6.11-8.09,14.01-13.4,23.98-15.61
			c5.16-1.14,10.14-0.68,15.06,1.13c3.22,1.19,4.91,3.45,5.07,6.84c0.08,1.59,0.09,3.21-0.05,4.79c-0.63,7.27,1.67,13.52,6.43,18.95
			c2.98,3.4,6.4,6.28,10.57,8.12c1.37,0.6,2.86,1.02,4.34,1.29c1.44,0.27,2-0.15,1.94-1.65c-0.12-3.1-0.09-6.28-0.81-9.26
			c-1.16-4.8-2.82-9.48-4.37-14.18c-1.33-4.03-3.97-7.07-7.48-9.39c-1.07-0.71-2.11-1.44-3.16-2.18c-2.95-2.1-4.38-5-4.45-8.59
			c-0.25-13.61,3.95-25.66,12.94-35.89c6.62-7.52,15.11-11.89,24.83-14.04c8.34-1.85,16.49-1.51,24.39,1.98
			c6.53,2.88,11.78,7.32,15.78,13.22c1.6,2.36,3.15,4.75,4.99,7.55c0.37-2.56,0.64-4.65,0.97-6.73c1.32-8.47,5.25-15.64,10.76-22.12
			c8.38-9.86,19.24-15.04,31.73-17.33c9.3-1.7,18.67-2.59,28.12-2.52c4.88,0.04,9.76,0.05,14.63,0.16c2.79,0.06,5.55,0.45,8.55,1.34
			c-0.06,168.66-0.13,337.27-0.55,506.03c-0.97,0.22-1.8,0.51-2.65,0.58c-9.64,0.74-19.27,1.77-28.95,1.43
			c-7.82-0.27-15.65-0.61-23.26-2.76c-3.55-1.01-6.97-2.33-10.15-4.23c-3.78-2.26-6.22-5.44-6.81-9.9
			c-0.32-2.45,0.22-4.77,1.04-7.04c1.58-4.4,4.07-8.32,6.53-12.24c2.29-3.66,4.69-7.25,6.85-10.98c5.34-9.21,8.02-19.18,7.35-29.83
			c-0.82-13.03-4.58-25.11-12.77-35.53c-2.15-2.74-4.67-5.09-7.9-6.46c-1.28-0.54-2.76-0.78-4.16-0.81
			c-1.73-0.03-2.42,0.79-2.51,2.53c-0.14,2.51,0.1,5,1.37,7.21c2.07,3.6,4.19,7.18,6.45,10.65c2.33,3.57,4.44,7.21,5.69,11.31
			c2.43,7.95,2.07,15.92,0.26,23.91c-1.98,8.72-5.94,16.5-11.33,23.59c-6.13,8.06-13.45,14.74-22.42,19.55
			c-14.64,7.85-29.6,8.18-44.83,1.9c-12.23-5.04-21.49-13.36-27.55-25.16c-3.18-6.19-4.56-12.78-3.96-19.72
			c0.73-8.34,5.04-14.66,11.43-19.75c4.15-3.31,8.79-5.82,13.42-8.35c3.51-1.92,7.01-3.84,10.51-5.77c3.09-1.71,5.93-3.76,8.39-6.33
			c7.06-7.39,5.65-19.09-0.29-25.58c-0.25-0.27-0.6-0.44-1.15-0.83c-0.36,1.45-0.71,2.65-0.94,3.88
			c-1.67,8.91-6.19,16.23-12.7,22.34c-11.88,11.16-26.04,17.78-42.05,20.46c-7.95,1.33-15.57,0.31-22.85-3.31
			c-6.03-3-11.96-6.1-17.1-10.53c-6.17-5.32-10.57-11.73-12.24-19.82c-1.6-7.73-0.16-15.09,2.85-22.23
			c2.99-7.09,7.62-13.1,12.6-18.86C53.08,348.61,54.97,346.36,56.88,344.12z M267.17,8.44c-0.57-0.07-0.95-0.16-1.34-0.16
			c-10.7,0.03-21.43-0.56-32.09,0.95c-5.93,0.84-11.87,1.68-17.52,3.8c-11.71,4.39-19.96,12.39-24.79,23.91
			c-1.63,3.88-2.22,7.99-2.31,12.17c-0.07,3.12,0.03,6.24-0.13,9.35c-0.14,2.81-1.59,4.63-3.83,5.22c-2.2,0.58-3.98-0.36-5.38-1.87
			c-1.29-1.4-2.35-3.02-3.42-4.61c-2.98-4.45-5.7-9.08-8.89-13.37c-3.99-5.37-9.36-8.97-16.03-10.17
			c-10.34-1.87-19.96,0.24-28.43,6.39c-10.76,7.81-16.2,18.68-17,31.88c-0.3,5.03-0.74,4.9,3.93,7.98c5.25,3.45,9,8.1,10.86,14.17
			c1.49,4.89,3.08,9.75,4.48,14.66c1.17,4.1,1.66,8.3,0.89,12.56c-0.91,5.02-4.1,8.04-9.19,7.98c-2.95-0.04-5.71-0.62-8.33-1.91
			c-6.05-2.96-11.24-7.03-15.29-12.44c-3.87-5.17-6.25-10.94-6.59-17.45c-0.12-2.22-0.03-4.46-0.02-6.69
			c0.01-2.08-0.1-2.29-2.13-2.78c-2.27-0.55-4.55-0.79-6.88-0.32c-12.33,2.46-20.65,9.7-25.05,21.36
			c-2.93,7.76-1.41,15.08,2.97,21.94c0.9,1.4,2.1,2.08,3.8,2.03c2-0.06,4-0.04,6,0.05c9.36,0.45,15.99,4.86,19.65,13.6
			c2.74,6.55,3.17,13.31,2.06,20.23c-0.38,2.38-1.18,4.66-2.7,6.59c-2.38,3.02-6.38,3.21-8.97,0.38c-0.91-1-1.6-2.2-2.44-3.26
			c-1.23-1.57-2.36-3.25-3.78-4.63c-3.19-3.09-7.1-4.14-11.48-3.47c-9.62,1.47-17.17,6.24-22.63,14.26
			c-3.71,5.45-6.29,11.29-6.01,18.1c0.17,4.24,2.07,7.32,5.85,9.18c2.22,1.09,4.53,1.99,6.79,3.01c1.16,0.53,2.36,1.02,3.43,1.71
			c3.96,2.58,3.61,7.75-0.64,9.85c-0.71,0.35-1.48,0.58-2.25,0.81c-2.53,0.74-5.07,1.44-7.6,2.19c-4.12,1.21-6.79,3.95-8.51,7.84
			c-1.95,4.4-2.3,8.98-1.65,13.63c1.06,7.53,5.83,12.57,13.12,14.08c4.12,0.85,8.26,0.75,12.37-0.12
			c7.46-1.58,13.23-5.8,17.98-11.58c4.36-5.3,7.47-11.32,10.17-17.59c3.07-7.12,6.12-14.24,9.19-21.36
			c1.05-2.43,2.26-4.78,4.24-6.62c3.12-2.9,7.55-2.64,10.09,0.76c1.02,1.36,1.8,3.08,2.12,4.74c0.5,2.65,0.77,5.4,0.7,8.09
			c-0.1,3.74-0.38,7.51-1,11.2c-0.98,5.82-1.92,11.69-3.57,17.34c-3.24,11.07-10.11,19.66-19.48,26.27
			c-9.45,6.67-19.58,12.06-30.33,16.32c-2.74,1.09-5.46,2.29-8.1,3.61c-8.43,4.2-14.16,15.59-12.69,24.92
			c1.07,6.78,3.93,12.64,9,17.31c4.11,3.79,8.92,5.85,14.61,5.49c3.16-0.2,6.07-1.26,8.9-2.64c2.29-1.12,4.6-2.21,6.97-3.17
			c1.99-0.8,3.78-0.28,5.18,1.36c1.19,1.39,1.27,3.37,0.02,5.36c-0.93,1.48-2.06,2.85-3.21,4.17c-5.05,5.78-10.16,11.51-15.21,17.28
			c-4.5,5.14-8.5,10.61-10.66,17.21c-1.43,4.38-2.3,8.8-1.58,13.43c1.05,6.73,4.56,12.03,9.58,16.42
			c5.99,5.23,12.93,8.81,20.36,11.44c2.14,0.76,4.53,1.08,6.81,1.12c7.71,0.13,15-1.92,22.1-4.77c9.33-3.74,17.69-8.91,24.43-16.47
			c4.52-5.07,7.73-10.77,8.33-17.68c0.14-1.59,0.12-3.19,0.3-4.78c0.44-3.92,3.78-6.33,7.51-5.22c1.79,0.53,3.61,1.4,5.06,2.56
			c10.23,8.16,11.74,22.08,8.27,31.08c-2.46,6.39-7.07,10.95-12.87,14.36c-3.93,2.31-7.95,4.46-11.87,6.77
			c-4.54,2.68-9.2,5.2-13.46,8.27c-7.6,5.48-10.11,13.1-8.07,22.19c1.48,6.56,4.85,12.14,9.31,17.07
			c6.95,7.68,15.76,12.11,25.75,14.38c7.01,1.6,13.99,1.42,20.79-0.99c7.93-2.81,15.01-7.1,21.13-12.9
			c8.28-7.85,13.7-17.44,16.59-28.41c2.67-10.16,1.41-19.79-4.66-28.6c-2.09-3.03-4.07-6.12-5.98-9.27
			c-2.72-4.49-4.16-9.29-3.35-14.63c0.85-5.59,4.79-9.18,10.4-9.39c4.62-0.17,8.61,1.52,12.22,4.2
			c6.34,4.71,10.52,11.12,13.82,18.12c3.88,8.24,6.15,16.92,6.92,26.02c0.84,9.83-0.63,19.26-4.22,28.41
			c-2.44,6.22-6.11,11.75-9.65,17.36c-2.3,3.64-4.56,7.34-6.46,11.2c-2.48,5.04-1.58,7.22,3.48,9.76c5.52,2.77,11.5,4.16,17.57,4.28
			c10.38,0.21,20.77-0.15,31.16-0.3c0.76-0.01,1.51-0.29,2.45-0.48C267.17,336.15,267.17,172.4,267.17,8.44z"/>
		<path class="st5" d="M197.51,628.97c-6.23,0-12.03,0-17.8,0c-0.81-3.86-1.06-64.51-0.24-68.43c5.47-0.16,11-0.05,16.64-0.07
			c0.26,2.04,0.49,3.85,0.73,5.71c1.34,0.34,2.07-0.68,2.87-1.34c3.56-2.88,7.55-4.8,12.08-5.49c4.49-0.69,8.93-0.39,13.25,1.05
			c2.87,0.96,5.27,2.64,7.16,5.03c0.84,1.06,1.68,2.11,2.63,3.3c0.73-0.71,1.37-1.29,1.97-1.92c5.06-5.38,11.3-7.96,18.66-7.7
			c2.46,0.09,4.96,0.32,7.35,0.87c6.26,1.44,10.37,5.43,12.58,11.39c1.34,3.62,2,7.4,2.01,11.27c0.02,14.63,0.04,29.27,0.05,43.9
			c0,0.71-0.08,1.41-0.12,2.08c-2.33,0.52-16.15,0.46-18.23-0.11c0-1.91,0-3.89,0-5.88c0-11.75,0.02-23.51-0.02-35.26
			c-0.01-2.15-0.19-4.31-0.47-6.44c-0.5-3.77-3.07-6.21-6.86-6.53c-1.82-0.15-3.67-0.19-5.48,0c-5.14,0.53-8.86,4.75-8.86,9.87
			c0,13.91,0,27.83,0,41.74c0,0.86,0,1.72,0,2.93c-6.19,0.06-12.14,0.02-18.36,0.03c-0.05-1.14-0.13-2.07-0.13-2.99
			c-0.02-13.43-0.01-26.87-0.07-40.3c-0.01-1.9-0.18-3.84-0.58-5.7c-0.58-2.69-2.24-4.54-4.99-5.28c-3.25-0.87-6.48-0.88-9.67,0.22
			c-4,1.38-6.07,4.25-6.07,8.45c-0.01,14.15,0,28.31-0.01,42.46C197.51,626.79,197.51,627.73,197.51,628.97z"/>
		<path class="st6" d="M560.16,628.92c-5.47,0-10.79,0-16.29,0c-0.32-1.87-0.63-3.64-1-5.81c-1.01,0.63-1.95,1.02-2.65,1.68
			c-9.77,9.32-28.45,7.53-36.52-6.98c-2.28-4.1-3.8-8.44-4.47-13.08c-1.17-8.05-1.28-16.08,0.74-24.04
			c1.68-6.6,4.73-12.36,10.15-16.7c3.75-3,8.06-4.48,12.79-4.87c5.97-0.5,11.42,0.86,16.24,4.53c0.57,0.43,1.21,0.77,1.83,1.12
			c0.11,0.06,0.3-0.01,0.71-0.04c0-10.8,0-21.63,0-32.71c6.25-0.64,12.26-0.9,18.27-0.22C560.43,533.56,560.64,624.11,560.16,628.92
			z M541.77,594.82c0-3.91-0.05-7.82,0.02-11.73c0.03-1.88-0.6-3.43-1.79-4.8c-3.12-3.6-7.21-4.49-11.7-4.07
			c-3.98,0.38-6.77,2.6-8.58,6.09c-0.44,0.85-0.88,1.72-1.1,2.64c-0.63,2.63-1.37,5.26-1.65,7.94c-0.63,5.94-0.07,11.79,2.16,17.39
			c1.31,3.3,3.62,5.61,7.04,6.68c4.63,1.45,8.85,0.47,12.61-2.44c2.05-1.59,3.12-3.71,3.03-6.44
			C541.68,602.33,541.78,598.57,541.77,594.82z"/>
		<path class="st7" d="M421.8,565.29c0-11.53,0-22.38,0-33.41c6.18,0,12.2,0,18.45,0c0.06,0.81,0.17,1.58,0.17,2.36
			c0.01,11.51,0.04,23.01-0.04,34.52c-0.01,1.46-0.38,3.04-1,4.36c-3.21,6.76-4.69,13.86-4.7,21.33c-0.01,6.2,0.48,12.28,2.85,18.09
			c0.3,0.74,0.52,1.54,0.96,2.19c2.97,4.36,1.68,9.21,1.92,14.08c-5.64,0-11.03,0-16.61,0c-0.34-1.91-0.67-3.77-1.07-6
			c-1.06,0.81-1.9,1.37-2.64,2.04c-9.81,8.84-26.21,7.03-34.38-3.98c-3.5-4.72-5.52-10.06-6.51-15.8
			c-1.44-8.36-1.34-16.69,0.85-24.93c1.48-5.59,4.05-10.56,8.24-14.64c7.71-7.5,20.77-8.68,29.65-2.64
			C419.02,563.61,420.17,564.28,421.8,565.29z M421.78,594.81c0,0-0.01,0-0.01,0c0-3.51,0-7.02,0-10.54c0-0.08,0-0.16,0-0.24
			c-0.01-4.72-2.72-8.23-7.36-9.21c-1.85-0.39-3.8-0.34-5.7-0.48c-2.66-0.2-4.8,0.92-6.66,2.71c-2.33,2.24-3.51,5.1-4.25,8.17
			c-1.4,5.83-1.41,11.72-0.4,17.58c0.51,2.98,1.43,5.92,3.3,8.39c4.75,6.27,14.78,5.34,19.22,0.15c1.27-1.49,1.93-3.24,1.88-5.28
			C421.72,602.32,421.78,598.56,421.78,594.81z"/>
		<path class="st8" d="M74.01,585.97c0.27-0.4,0.5-0.83,0.8-1.19c5.68-6.71,11.41-13.39,17.03-20.15c1.74-2.09,3.7-2.97,6.44-2.87
			c4.95,0.19,9.91,0.07,14.87,0.07c0.88,0,1.75,0,3.14,0c-1.36,1.97-2.79,3.4-4.08,4.93c-1.34,1.59-2.72,3.15-4.08,4.72
			c-1.36,1.57-2.72,3.14-4.08,4.71c-1.36,1.57-2.72,3.14-4.08,4.71c-1.36,1.57-2.72,3.15-4.07,4.72c-1.35,1.57-2.71,3.13-4.13,4.78
			c0.57,0.91,1.04,1.73,1.57,2.51c3.69,5.51,7.42,11,11.07,16.54c0.96,1.46,1.83,3.01,2.5,4.62c2.05,4.95,4.97,9.28,8.8,13.02
			c0.95,0.92,1.8,1.94,3,3.26c-1.26,0.09-2.03,0.18-2.79,0.19c-5.2,0.03-10.39-0.04-15.59,0.08c-2.1,0.05-3.41-0.74-4.51-2.49
			c-4.76-7.58-9.6-15.11-14.43-22.65c-0.47-0.73-0.98-1.43-1.42-2.07c-2.09,1.97-4.18,3.8-6.08,5.82c-0.5,0.53-0.53,1.64-0.54,2.48
			c-0.06,5.36-0.06,10.71-0.08,16.07c0,0.78,0,1.56,0,2.5c-6.11,0-11.98,0-17.85,0c-0.53-1.95-0.79-88.7-0.29-96.79
			c1.6-0.49,14.17-0.65,18.11-0.2c0,17.42,0,34.87,0,52.32C73.5,585.75,73.76,585.86,74.01,585.97z"/>
		<path class="st9" d="M171.93,602.21c-14.45,0-28.81,0-43.41,0c0.08,0.89,0.01,1.61,0.22,2.24c2.81,8.58,8.23,13,18.03,12.46
			c6.3-0.35,9.02-1.87,15.04-7.46c2.91,3.25,5.82,6.49,8.9,9.93c-0.82,1.02-1.54,2.05-2.39,2.96c-4.9,5.26-11.15,7.87-18.08,9.07
			c-7.27,1.26-14.33,0.51-21.14-2.37c-9.91-4.2-16.11-11.53-18.33-22.1c-1.92-9.11-1.57-18.09,1.88-26.85
			c4.9-12.43,14.85-19.01,28.32-19.61c4.28-0.19,8.44,0.43,12.48,1.88c6.89,2.49,11.88,7.03,15.03,13.63
			c2.34,4.91,3.47,10.11,3.6,15.52c0.08,3.12,0.03,6.23,0.02,9.35C172.11,601.27,172.01,601.65,171.93,602.21z M154.48,589.33
			c-0.53-2.48-0.92-4.82-1.55-7.09c-0.52-1.88-1.72-3.4-3.34-4.54c-3.26-2.3-6.85-2.96-10.68-1.96c-5.69,1.48-9.86,7.09-10.2,13.59
			C137.21,589.33,145.71,589.33,154.48,589.33z"/>
		<path class="st10" d="M372.19,628.87c-6.06,0-11.95,0-17.98,0c-0.08-0.59-0.19-1.12-0.22-1.64c-0.04-0.64-0.01-1.28-0.01-1.92
			c-0.07-13.51-0.11-27.02-0.23-40.52c-0.02-1.74-0.17-3.54-0.68-5.19c-0.97-3.13-3.34-4.82-6.56-5.15
			c-1.74-0.18-3.51-0.14-5.27-0.12c-3.84,0.04-6.69,1.93-8.84,4.95c-0.52,0.73-0.73,1.74-0.91,2.65c-0.15,0.77-0.06,1.59-0.06,2.39
			c0,13.91,0,27.82,0,41.73c0,0.86,0,1.72,0,2.75c-6.13,0-11.99,0-17.82,0c-0.96-4.58-1.06-65.17-0.11-68.18c5.46,0,10.96,0,16.64,0
			c0.29,2.07,0.58,4.08,0.91,6.45c1.31-0.99,2.34-1.72,3.32-2.5c7.87-6.21,16.61-6.92,25.83-3.9c4.32,1.42,7.25,4.59,9.17,8.65
			c1.79,3.8,2.88,7.84,2.9,12.03c0.1,15.43,0.06,30.86,0.07,46.29C372.34,627.96,372.27,628.28,372.19,628.87z"/>
		<path class="st6" d="M492.56,608.12c3.32,3.63,4.04,8.5,6.13,12.92c-1.17,1.04-2.16,2.07-3.3,2.91
			c-5.15,3.81-11.01,5.63-17.34,6.29c-6.69,0.7-13.06-0.27-19.17-2.99c-9.42-4.18-15.25-11.35-17.48-21.41
			c-1.96-8.85-1.72-17.6,1.42-26.18c4.76-13.06,15.41-20.55,29.3-20.64c6.98-0.05,13.51,1.46,19.1,5.83
			c1.81,1.41,3.31,3.22,4.92,4.88c0.92,0.95,1.07,1.99,0.51,3.29c-3.08,7.09-4.03,14.58-3.87,22.25c0.04,1.73,0.01,3.47,0.01,5.46
			c-5.76,0-11.26,0-16.75,0c-5.51,0-11.01,0-16.74,0c0,0.75-0.1,1.36,0.01,1.94c1.35,6.86,7.18,11.92,14.18,12.66
			c7,0.74,12.93-1.21,17.78-6.34c0.22-0.23,0.46-0.44,0.72-0.63C492.07,608.27,492.24,608.24,492.56,608.12z M484.58,587.82
			c0-1.09,0.1-1.97-0.02-2.82c-0.62-4.7-2.46-8.61-7.3-10.31c-3.36-1.18-6.74-1.08-10.03,0.35c-4.92,2.14-8.23,7.73-7.46,12.77
			C467.93,587.82,476.1,587.82,484.58,587.82z"/>
		<path class="st3" d="M22.53,630.34c-5.95,0-11.75,0-17.7,0c0-32.35,0-64.6,0-97.02c5.82,0,11.68,0,17.7,0
			C22.53,565.58,22.53,597.82,22.53,630.34z"/>
		<path class="st11" d="M303.54,560.64c0,22.68,0,45.26,0,67.85c-1.59,0.6-14.2,0.79-17.95,0.25c0-22.62,0-45.27,0-68.1
			C291.53,560.64,297.46,560.64,303.54,560.64z"/>
		<path class="st12" d="M48.4,630.34c-5.93,0-11.73,0-17.68,0c0-22.78,0-45.44,0-68.23c5.88,0,11.68,0,17.48,0
			C48.69,563.8,48.9,625.8,48.4,630.34z"/>
		<path class="st13" d="M358.97,663.66c-2.08,0-4.04,0-6.29,0c0-0.87,0-1.64,0-2.42c-0.01-3.84-0.01-7.67-0.03-11.51
			c-0.01-1.1-0.31-2.09-1.42-2.56c-1.11-0.47-2.21-0.33-3.19,0.35c-0.95,0.66-1.15,1.66-1.15,2.75c0,3.6-0.02,7.19-0.03,10.79
			c0,0.79,0,1.57,0,2.54c-2.11,0-4.06,0-6.3,0c-0.08-0.76-0.23-1.59-0.24-2.42c-0.03-3.2-0.01-6.4-0.02-9.59
			c0-0.8,0.01-1.61-0.12-2.39c-0.24-1.53-1.17-2.29-2.6-2.27c-1.57,0.02-2.73,0.85-2.99,2.23c-0.12,0.62-0.08,1.27-0.09,1.91
			c-0.01,3.36,0,6.72,0,10.07c0,0.78,0,1.56,0,2.47c-2.17,0-4.12,0-6.22,0c0-7.15,0-14.22,0-21.46c2.23-0.07,4.43-0.66,6.42,0.82
			c5.5-2.17,6.96-2.06,11.02,0.96c0.46-0.3,0.98-0.62,1.48-0.97c2.11-1.47,4.48-1.74,6.89-1.25c2.6,0.54,4.11,2.36,4.73,4.88
			c0.24,1,0.33,2.06,0.34,3.09c0.04,4,0.02,7.99,0.01,11.99C359.16,662.3,359.04,662.92,358.97,663.66z"/>
		<path class="st14" d="M490.04,644.17c2.1-1.94,4.41-2.81,7.12-2.64c3.48,0.21,5.99,2.39,6.09,5.85c0.15,5.34,0.04,10.7,0.04,16.25
			c-2,0-3.94,0-6.23,0c0-0.93,0-1.86,0-2.8c-0.01-3.76,0.03-7.52-0.04-11.27c-0.03-1.63-0.8-2.37-2.28-2.59
			c-1.42-0.21-2.59,0.37-3.09,1.68c-0.25,0.65-0.34,1.39-0.36,2.1c-0.06,2.16-0.05,4.32-0.05,6.48c-0.01,2.07,0,4.14,0,6.33
			c-2.16,0.48-4.18,0.26-6.41,0.19c-0.06-1-0.15-1.85-0.16-2.71c-0.02-3.2,0-6.4-0.01-9.59c0-0.72,0.02-1.45-0.09-2.15
			c-0.22-1.51-1.16-2.34-2.54-2.37c-1.62-0.03-2.88,0.9-3.11,2.39c-0.1,0.62-0.04,1.28-0.04,1.91c0,4.07,0,8.13,0,12.38
			c-2.08,0-4.02,0-6.17,0c-0.5-7.1-0.59-14.16-0.03-21.33c2.01-0.27,3.85-0.9,5.67,0.29c0.33,0.22,0.91,0.12,1.36,0.07
			c0.47-0.06,0.93-0.23,1.38-0.37C484.4,641.25,487.57,640.99,490.04,644.17z"/>
		<path class="st15" d="M417.37,650.04c0.39-2.17,0.16-2.81-1.09-3.35c-1.28-0.55-2.3-0.33-3.29,1.1c-0.64,0.92-1.31,1.25-2.36,1.19
			c-1.34-0.07-2.69-0.02-4.1-0.02c-0.51-1.37-0.26-2.55,0.49-3.48c0.78-0.97,1.72-1.94,2.79-2.55c3.09-1.74,6.43-1.92,9.72-0.73
			c2.95,1.07,4.73,3.18,4.75,6.5c0.01,2.71-0.04,5.43,0.08,8.14c0.1,2.29,0.4,4.58,0.64,7.15c-1.53,0-3.14,0.35-4.49-0.08
			c-1.96-0.63-3.62-0.28-5.48,0.25c-2.89,0.81-5.57,0.06-7.68-2.14c-3.31-3.46-1.94-9.12,2.61-10.78c1.19-0.43,2.47-0.66,3.72-0.86
			C414.84,650.19,416.04,650.15,417.37,650.04z M417.61,654.25c-1.4,0.19-2.68,0.26-3.89,0.57c-1.15,0.3-1.69,1.28-1.56,2.35
			c0.13,1.08,0.88,1.73,2.12,1.84C416.95,659.25,418.08,657.75,417.61,654.25z"/>
		<path class="st16" d="M469.66,655.44c-4.2,0-8.26,0-12.32,0c0.12,2.28,1.55,3.74,3.91,3.49c1.82-0.2,3.56-1.11,5.68-1.83
			c0.72,0.79,1.73,1.89,2.83,3.1c-0.55,0.6-0.97,1.18-1.5,1.63c-3.69,3.15-7.87,3.33-12.14,1.64c-4.09-1.62-5.94-5.02-5.97-9.26
			c-0.02-2.19,0.27-4.5,0.99-6.56c1.5-4.29,5.85-6.62,10.56-6.08c4.45,0.51,7.37,3.44,8.12,8.12
			C470.11,651.5,470.29,653.31,469.66,655.44z M457.33,650.41c2.09,0,4.03,0,5.97,0c-0.14-2.54-1.01-3.55-2.93-3.54
			C458.48,646.88,457.52,647.94,457.33,650.41z"/>
		<path class="st15" d="M362.57,648.66c0.31-3.8,2.59-6.14,6.79-6.96c2.58-0.5,5.1-0.21,7.48,0.93c2.17,1.04,3.52,2.73,3.72,5.18
			c0.12,1.51,0.16,3.03,0.19,4.54c0.03,1.92-0.07,3.84,0.04,5.75c0.11,1.89,0.41,3.77,0.64,5.75c-2.18,0.15-4.28,0.61-6.38-0.38
			c-0.51-0.24-1.36-0.04-1.96,0.21c-2.42,0.99-4.82,1.04-7.2-0.05c-2.62-1.2-4.16-3.78-3.98-6.55c0.19-2.93,1.83-5.02,4.76-5.91
			c1.22-0.37,2.48-0.62,3.73-0.82c1.17-0.19,2.35-0.23,3.57-0.35c0.31-1.47,0.1-2.63-1.29-3.3c-1.24-0.6-2.35-0.37-3.31,1
			c-0.71,1-1.49,1.28-2.61,1.21c-1.19-0.07-2.39-0.03-3.59-0.05C363.03,648.87,362.88,648.77,362.57,648.66z M374,654.46
			c-0.78,0-1.47-0.02-2.16,0.01c-0.47,0.02-0.96,0.05-1.41,0.17c-1.3,0.36-2.08,1.48-1.9,2.63c0.19,1.2,1.2,1.91,2.67,1.73
			C373.51,658.73,374.9,657.69,374,654.46z"/>
		<path class="st16" d="M525.83,655.42c-2.27,0-4.33,0-6.4,0c-1.99,0-3.97,0-6,0c-0.32,1.62,0.54,2.41,1.63,2.97
			c2.85,1.45,5.23,0.31,7.55-1.7c1.09,1.17,2.1,2.26,3.16,3.4c-2.32,3.67-5.84,4.56-9.62,4.38c-5.85-0.27-9.87-4.63-9.91-10.51
			c-0.01-1.58,0.1-3.21,0.46-4.74c1.45-6.31,8.21-9.53,14.09-6.83c1.89,0.87,3.33,2.22,4.18,4.1
			C526.21,649.25,526.53,652.13,525.83,655.42z M519.46,650.56c-0.22-2.76-1.21-3.82-3.24-3.67c-1.9,0.14-2.87,1.46-2.63,3.67
			C515.49,650.56,517.39,650.56,519.46,650.56z"/>
		<path class="st17" d="M294.87,533.15c0.12,0.01,0.77,0,1.4,0.08c5.09,0.59,8.23,3.94,8.5,8.73c0.33,5.81-3.65,9.32-7.92,10.03
			c-2.03,0.34-3.95,0.35-5.89-0.25c-4.63-1.42-7.48-5.79-6.82-10.49c0.64-4.59,4.46-7.92,9.26-8.1
			C293.71,533.14,294.03,533.15,294.87,533.15z"/>
		<path class="st18" d="M534.91,663.86c-2.27,0-4.23,0-6.32,0c0-7.28,0-14.35,0-21.71c2.24,0.21,4.51-0.84,6.29,0.73
			c1.92-0.47,3.67-1.18,5.44-1.26c4.19-0.19,6.92,2.29,7.05,6.46c0.16,5.1,0.04,10.21,0.04,15.42c-2.04,0.58-4,0.14-6.16,0.32
			c-0.08-1.27-0.21-2.35-0.22-3.44c-0.03-3.36,0.03-6.71-0.05-10.07c-0.03-1.25-0.11-2.59-1.65-3.15c-2.15-0.79-4.09,0.33-4.34,2.63
			c-0.11,1.03-0.07,2.08-0.07,3.11C534.9,656.5,534.91,660.09,534.91,663.86z"/>
		<path class="st19" d="M49.22,543.96c0,0.16-0.03,0.32,0,0.48c1.23,6.64-5.69,9.62-10.31,9.21c-0.56-0.05-1.11-0.17-1.65-0.27
			c-4.93-0.97-7.86-4.33-7.95-9.08c-0.09-4.84,2.61-8.33,7.48-9.47c3.24-0.76,6.34-0.34,9.2,1.5c2.27,1.46,3.53,3.42,3.28,6.2
			c-0.04,0.48-0.01,0.96-0.01,1.44C49.24,543.96,49.23,543.96,49.22,543.96z"/>
		<path class="st20" d="M390.46,642.84c2.15-0.47,3.98-1.16,5.83-1.21c3.85-0.11,6.49,2.22,6.65,6.06
			c0.22,5.24,0.06,10.51,0.06,15.92c-2.08,0-4.02,0-6.15,0c-0.05-0.92-0.13-1.78-0.14-2.63c-0.02-3.11,0-6.23-0.01-9.34
			c0-0.72,0.01-1.45-0.12-2.15c-0.35-1.95-1.3-2.7-3.1-2.55c-1.86,0.15-2.94,1.19-2.97,3.07c-0.05,3.59-0.01,7.18,0,10.78
			c0,0.87,0,1.74,0,2.72c-2.1,0.76-4.1,0.61-6.23,0.27c0-7.22,0-14.3,0-21.68C386.48,642.41,388.69,641.29,390.46,642.84z"/>
		<path class="st21" d="M457.33,650.41c0.19-2.47,1.15-3.54,3.04-3.54c1.92-0.01,2.78,1,2.93,3.54
			C461.36,650.41,459.42,650.41,457.33,650.41z"/>
		<path class="st21" d="M519.46,650.56c-2.07,0-3.98,0-5.87,0c-0.24-2.21,0.73-3.53,2.63-3.67
			C518.25,646.74,519.25,647.79,519.46,650.56z"/>
	</g>
</g>
</svg>
