<?xml version="1.0" encoding="utf-8"?>
<!-- Generator: Adobe Illustrator 23.1.1, SVG Export Plug-In . SVG Version: 6.00 Build 0)  -->
<svg version="1.1" xmlns="http://www.w3.org/2000/svg" xmlns:xlink="http://www.w3.org/1999/xlink" x="0px" y="0px"
	 viewBox="0 0 1296 1728" style="enable-background:new 0 0 1296 1728;">
<style type="text/css">
	.st0{display:none;}
	.st1{display:inline;fill:#5A2A90;stroke:#5A2A90;stroke-width:9;stroke-miterlimit:10;}
	.st2{display:inline;}
	.st3{fill:#FFFFFF;}
	.st4{display:inline;fill:#5A2A90;stroke:#5A2A90;stroke-width:6;stroke-miterlimit:10;}
	.st5{fill:none;stroke:#5A2A90;stroke-width:2.6877;stroke-miterlimit:10;}
	.st6{fill:#5A2A90;stroke:#5A2A90;stroke-width:0.75;stroke-miterlimit:10;}
	.st7{font-family:'Roboto-Bold';}
	.st8{font-size:40px;}
	.st9{fill:#5A2A90;stroke:#FFFFFF;stroke-width:5.7844;stroke-miterlimit:10;}
	.st10{fill:#D4AF37;stroke:#FFFFFF;stroke-width:5.7844;stroke-miterlimit:10;}
	.st11{fill:#D4AF37;}
	.st12{fill:#5A2A90;}
</style>
<g id="Layer_3" class="st0">
	<path class="st1" d="M712.62,776.25c42.54,4.19,59.39-2.34,62.39-9.08c5.49-12.33-18.81-25.42-20.68-54.48
		c-1.56-24.26,17.39-25.65,16.24-20.04c-3.7,18.17,0.02,36.88,11.57,51.44c21.06,26.53,43.93,29.1,64.9,6.52
		c12.85-13.84,16.12-30.81-10.72-45.39c-11.5-6.25-12.61-36.48-2.57-31.22c8.15,4.27,10.18,39.42,69.28,18.87
		c21.64-7.53,37.34-31.63,25.66-66.05c-6.94-20.46-20.88-32.26-3.47-22.96c23.71,12.66,39.2-7.73,29.48-24.36
		c-15.03-25.71-38.19-20.38-56.31-39.82c-10.95-11.76-19.53-38.75-15.89-54.38c0.4-1.73,1.21-3.74,2.88-4
		c5-0.77,15.6,27.15,18.12,31.2c8.07,12.96,18.34,24.71,31.94,31.14c6.8,3.22,15.15,4.85,21.43,0.61c5.3-3.57,7.74-10.35,9.32-16.79
		c1.77-7.26,2.4-17.39-2.57-24.12c-6.54-8.88-17.35-4.46-24.23-11.5c5.87-3.6,12.81-7.35,15.28-14.62
		c2.56-7.53-0.61-15.95-5.1-22.38c-4.59-6.58-10.8-12.13-18.18-14.57c-10.86-3.59-23.03,1.01-28.92,11.39
		c-9.22-4.33-8.45-23.48-1.08-29.89c8.38-7.29,16.35-1.1,20.2-6.35c19.96-27.26-10.23-54.2-31.22-44.19
		c-3.5,1.67-1.34,6.13-6.44,16.97c-5.82,12.37-16.64,20.94-22.03,17.24c-5.42-3.71,0.2-21.61,3.67-29.95
		c4.88-11.71,14.2-10.46,14.36-17.17c1.02-43.48-49.13-60.16-69.07-32.98c-6.1,8.32-9.99,17.49-12.32,16.9
		c-2.07-0.53,0.53-9.4-2.05-19.6c-3.67-14.5-15.62-22.99-18.48-25.01c-17.75-12.6-62.44-9.9-65.86-9.19L712.62,776.25z"/>
	<g class="st2">
		<path class="st3" d="M790.62,630.1c-4.3,0-10.41-2.51-10.6-6.59c-0.01-0.14-3.54-76.95-3.54-76.95c-0.11-2.41-2.03-3.71-3.79-3.71
			c-1.26,0-2.35,0.61-3.09,1.71l-11.81,17.77c-0.9,1.35-2.38,2.15-3.96,2.15c-1.62,0-3.11-0.83-3.98-2.22l-14.86-23.58
			c-0.72-1.14-1.82-1.77-3.09-1.77c-1.82,0-3.79,1.35-3.84,3.86l-1.75,78.62c-0.04,1.98-1.23,3.74-3.02,4.48l-8.16,3.35
			c-0.58,0.24-1.17,0.36-1.78,0.36c-1.23,0-2.44-0.51-3.32-1.4c-0.92-0.93-1.43-2.18-1.42-3.52l0.64-141.32
			c0.01-3.09,2.47-4.93,4.84-4.93c1.53,0,2.92,0.75,3.83,2.07l30.45,48.81c0.24,0.35,0.54,0.52,0.92,0.52
			c1.65,0,4.22-2.99,5.52-5.12c0,0,28.59-46.82,28.91-47.35c1.16-1.9,2.27-2.83,3.4-2.83c3.25,0,4.88,8.06,5.67,14.81
			c1.07,9.09,1.27,18.53,1.46,27.67c0.09,4.52,0.19,9.2,0.39,13.74l3.82,85.53c0.23,5.08,0.57,12.75-4.89,15.28
			C792.77,629.92,791.79,630.1,790.62,630.1z"/>
		<path class="st3" d="M787.08,473.03c3.38,0,4.85,11.55,5.18,14.37c1.6,13.58,1.23,27.71,1.84,41.37
			c1.27,28.47,2.54,56.94,3.81,85.42c0.22,4.92,0.6,12.51-4.59,14.92c-0.72,0.33-1.66,0.49-2.71,0.49c-4.14,0-9.93-2.45-10.1-6.11
			c0,0-3.54-76.95-3.54-76.95c-0.12-2.61-2.18-4.19-4.28-4.19c-1.3,0-2.62,0.6-3.5,1.94l-11.81,17.77c-0.86,1.29-2.2,1.93-3.54,1.93
			c-1.37,0-2.73-0.67-3.56-1.99l-14.86-23.58c-0.87-1.38-2.2-2-3.52-2c-2.15,0-4.28,1.65-4.34,4.35l-1.75,78.62
			c-0.04,1.78-1.11,3.37-2.71,4.03l-8.16,3.36c-0.53,0.22-1.07,0.32-1.59,0.32c-2.26,0-4.26-1.88-4.25-4.42l0.64-141.32
			c0.01-2.72,2.16-4.43,4.34-4.43c1.26,0,2.54,0.57,3.42,1.85l30.44,48.79c0.37,0.53,0.83,0.76,1.34,0.76
			c1.95,0,4.66-3.25,5.94-5.36c0,0,28.59-46.82,28.91-47.35C785.24,473.78,786.22,473.03,787.08,473.03 M787.08,472.03
			c-1.31,0-2.56,1-3.82,3.07l-28.91,47.35c-1.41,2.31-3.85,4.88-5.09,4.88c-0.15,0-0.32-0.04-0.52-0.33l-30.41-48.75
			c-1.02-1.49-2.57-2.32-4.27-2.32c-2.61,0-5.33,2.03-5.34,5.43l-0.64,141.32c-0.01,1.48,0.55,2.85,1.57,3.88
			c0.98,0.98,2.32,1.55,3.68,1.55c0.67,0,1.33-0.13,1.97-0.39l8.16-3.36c1.98-0.81,3.29-2.75,3.33-4.93l1.75-78.62
			c0.05-2.19,1.76-3.37,3.34-3.37c1.1,0,2.05,0.54,2.67,1.53l14.86,23.58c0.97,1.54,2.62,2.46,4.41,2.46c1.75,0,3.39-0.89,4.38-2.38
			l11.81-17.77c0.64-0.96,1.59-1.49,2.67-1.49c1.52,0,3.19,1.13,3.29,3.24c3.54,76.95,3.54,76.95,3.54,76.96
			c0.2,4.37,6.6,7.06,11.1,7.06c1.24,0,2.29-0.2,3.13-0.58c5.76-2.67,5.41-10.54,5.18-15.75l-0.01-0.12l-3.81-85.42
			c-0.2-4.53-0.3-9.21-0.39-13.72c-0.19-9.15-0.39-18.61-1.46-27.72C792.07,477.16,789.99,472.03,787.08,472.03L787.08,472.03z"/>
	</g>
	<g class="st2">
		<path class="st3" d="M699.33,470.98l5.98-0.45c1.23,11.74,2.9,24.82,3.82,28.74l0.7,0.21l0.06,2.17
			c0.4,15.08,3.06,29.73,5.63,43.9c2.09,11.51,4.25,23.41,5.27,35.73l0.01,0.16l0,0.16c-0.26,9.54-0.38,18.95-0.47,26.9l-0.02,1.79
			l-1.59,0.83c-2.58,1.35-4.01,4.22-3.81,7.68l0.09,1.6l-1.28,0.96c-0.84,0.63-1.52,1.39-2.02,2.26l-5.14,8.93L699.33,470.98z"/>
		<path class="st3" d="M702.33,470.85c0,0,3.2,30.48,4.55,30.88c0.72,27.52,8.65,52.36,10.91,79.8c-0.24,8.98-0.37,17.96-0.47,26.95
			c-3.88,2.03-5.66,6.17-5.42,10.51c-1.14,0.86-2.1,1.92-2.82,3.16L702.33,470.85 M708.29,470.22l-11.96,0.9l6.76,151.3l0.92,20.57
			l10.27-17.84c0.3-0.52,0.71-0.97,1.22-1.36l2.56-1.93l-0.18-3.2c-0.06-1.08,0.04-3.72,2.21-4.86l3.18-1.66l0.04-3.59
			c0.09-7.94,0.21-17.33,0.47-26.86l0.01-0.33l-0.03-0.33c-1.03-12.46-3.21-24.44-5.31-36.02c-2.67-14.7-5.19-28.59-5.58-43.44
			l-0.11-4.34l-1.05-0.32C710.79,491.83,709.34,480.2,708.29,470.22L708.29,470.22z"/>
	</g>
	<path class="st4" d="M712.17,362.41"/>
</g>
<g id="Layer_9">
	<line class="st5" x1="430.85" y1="922.68" x2="740.97" y2="922.68"/>
	<text transform="matrix(1 0 0 1 756.9753 934.3674)" class="st6 st7 st8">management</text>
	<g>
		<g>
			<rect x="431.97" y="800.83" class="st9" width="24.21" height="103.4"/>
		</g>
	</g>
	<g>
		<g>
			<path class="st9" d="M457.91,904.22v-74.55h24.21v74.55H457.91z M470.01,827.2c-3.84,0-7.02-1.16-9.45-3.46
				c-2.48-2.34-3.73-5.35-3.73-8.97c0-3.56,1.23-6.54,3.65-8.88c2.39-2.31,5.6-3.48,9.54-3.48c3.89,0,7.08,1.17,9.5,3.47
				c2.45,2.34,3.69,5.33,3.69,8.89c0,3.61-1.26,6.63-3.73,8.97C477.03,826.04,473.85,827.2,470.01,827.2z"/>
		</g>
	</g>
	<g>
		<g>
			<polygon class="st9" points="526.37,904.22 509.79,878.34 506.57,881.56 506.57,904.22 482.42,904.22 482.42,800.83 
				506.57,800.83 506.57,849.55 523.5,829.68 553.22,829.68 525.68,861.45 554.48,904.22 			"/>
		</g>
	</g>
	<g>
		<g>
			<path class="st9" d="M574.37,905.5c-10.82,0-19.78-3.4-26.65-10.1c-6.88-6.72-10.37-15.73-10.37-26.79v-1.78
				c0-7.32,1.45-13.98,4.3-19.8c2.91-5.93,7.09-10.56,12.45-13.79c5.33-3.21,11.46-4.83,18.24-4.83c10.21,0,18.4,3.31,24.35,9.84
				c5.88,6.45,8.86,15.6,8.86,27.18v10.39h-13.33L604.88,890l-1.33,1.88c-3.04,4.3-7.19,7.69-12.33,10.07
				C586.16,904.3,580.49,905.5,574.37,905.5z M562.47,875.82c0.76,2.3,1.99,4.2,3.71,5.77c2.46,2.23,5.53,3.32,9.4,3.32
				c6.19,0,10.87-2.15,14.3-6.57l1.95-2.51H562.47z M581.63,857.51c-0.26-2.59-1.07-4.63-2.43-6.07c-1.56-1.65-3.83-2.45-6.92-2.45
				c-2.82,0-5.03,0.91-6.73,2.77c-1.3,1.42-2.29,3.34-2.96,5.75H581.63z"/>
		</g>
	</g>
	<g>
	</g>
	<g>
		<g>
			<path class="st10" d="M712.99,902.78v-74.55h24.21v74.55H712.99z M725.1,825.76c-3.84,0-7.02-1.16-9.45-3.46
				c-2.48-2.34-3.74-5.36-3.74-8.97c0-3.55,1.23-6.54,3.65-8.88c2.39-2.31,5.6-3.48,9.54-3.48c3.89,0,7.08,1.17,9.5,3.47
				c2.45,2.34,3.69,5.33,3.69,8.89c0,3.61-1.26,6.63-3.73,8.97C732.12,824.59,728.94,825.76,725.1,825.76z"/>
		</g>
	</g>
	<g>
		<g>
			<path class="st10" d="M835.86,904.05c-9,0-16.33-3.6-21.77-10.7c-5.27-6.86-7.94-16.4-7.94-28.36c0-11.31,2.62-20.52,7.8-27.36
				c5.36-7.09,12.78-10.68,22.04-10.68c5.15,0,9.74,1.34,13.69,3.99v-31.57h24.21v103.4h-22.04l-0.48-3.96
				C847,902.29,841.81,904.05,835.86,904.05z M840.69,847.68c-2.57,0-10.39,0-10.39,18.68c0,5.85,0.97,10.31,2.9,13.25
				c1.71,2.62,4.05,3.84,7.37,3.84c4.34,0,7.26-1.59,9.12-5v-25.79C847.86,849.27,844.99,847.68,840.69,847.68z"/>
		</g>
	</g>
	<g>
		<g>
			<path class="st10" d="M905.21,904.05c-10.82,0-19.79-3.4-26.65-10.1c-6.88-6.72-10.37-15.74-10.37-26.79v-1.78
				c0-7.32,1.45-13.98,4.3-19.8c2.91-5.93,7.09-10.56,12.45-13.79c5.33-3.21,11.46-4.83,18.24-4.83c10.21,0,18.4,3.31,24.35,9.84
				c5.88,6.45,8.86,15.6,8.86,27.18v10.39h-13.33l12.67,14.18l-1.33,1.88c-3.04,4.3-7.19,7.69-12.33,10.07
				C917,902.86,911.33,904.05,905.21,904.05z M893.31,874.37c0.76,2.3,1.99,4.2,3.71,5.77c2.46,2.23,5.53,3.32,9.4,3.32
				c6.19,0,10.87-2.15,14.3-6.57l1.95-2.51H893.31z M912.47,856.07c-0.26-2.58-1.07-4.63-2.43-6.07c-1.56-1.65-3.83-2.45-6.92-2.45
				c-2.82,0-5.03,0.91-6.73,2.77c-1.3,1.42-2.29,3.34-2.96,5.75H912.47z"/>
		</g>
	</g>
	<g>
		<g>
			<path class="st10" d="M956.04,904.05c-9,0-16.33-3.6-21.77-10.7c-5.27-6.86-7.94-16.4-7.94-28.36c0-11.31,2.62-20.52,7.8-27.36
				c5.36-7.09,12.78-10.68,22.04-10.68c5.15,0,9.74,1.34,13.69,3.99v-31.57h24.21v103.4h-22.04l-0.48-3.96
				C967.18,902.29,961.98,904.05,956.04,904.05z M960.87,847.68c-2.57,0-10.39,0-10.39,18.68c0,5.85,0.97,10.31,2.9,13.25
				c1.71,2.62,4.05,3.84,7.37,3.84c4.34,0,7.26-1.59,9.12-5v-25.79C968.03,849.27,965.16,847.68,960.87,847.68z"/>
		</g>
	</g>
	<g>
		<g>
			<path class="st10" d="M781.74,902.78v-46.87c0-3.06-0.6-5.3-1.73-6.48c-1.1-1.15-3.31-1.75-6.37-1.75c-3.9,0-6.7,1.45-8.74,4.54
				v50.56h-24.15v-74.55h22.87l0.31,4.35c4.78-3.74,10.58-5.62,17.33-5.62c8.15,0,14.37,2.51,18.49,7.46
				c3.98,4.79,6.04,11.85,6.13,21.01l0,47.34H781.74z"/>
		</g>
	</g>
	<g>
		<g>
			<path class="st10" d="M686.76,902.78v-46.74c0-3.13-0.55-5.44-1.6-6.68c-1.17-1.39-3.84-1.68-5.86-1.68
				c-4.13,0-6.86,1.77-8.55,5.57l0.07,49.53h-24.15V856.1c0-3.19-0.56-5.52-1.63-6.73c-1.23-1.4-3.85-1.69-5.84-1.69
				c-3.9,0-6.59,1.39-8.42,4.36v50.74h-24.15v-74.55h22.8l0.31,4.2c4.76-3.64,10.57-5.47,17.34-5.47c8.3,0,14.53,2.8,18.59,8.32
				c5.16-5.53,11.96-8.32,20.3-8.32c8.32,0,14.66,2.54,18.87,7.55c4.08,4.86,6.14,12.08,6.14,21.46v46.81H686.76z"/>
		</g>
	</g>
</g>
<g id="Layer_11">
	<g>
		<g>
			<path class="st11" d="M530.7,363.91c-0.09,0-0.19-0.01-0.28-0.03c0,0-0.06,0-0.09,0c-0.4-0.02-0.8-0.18-1.07-0.47l-11.84-13.33
				c-0.27-0.3-0.4-0.69-0.38-1.09s0.21-0.77,0.52-1.04c0.7-0.61,1.39-1.21,2.07-1.8c1.47-1.29,2.86-2.5,4.31-3.7
				c35.22-29.18,75.64-47.41,120.13-54.2c5.69-0.87,11.5-1.36,17.12-1.84c2.75-0.23,5.49-0.47,8.23-0.74
				c0.53-0.05,1.08-0.16,1.66-0.28c0.29-0.06,0.58-0.12,0.87-0.17c0.09-0.02,0.17-0.02,0.26-0.02h18.15c0.41,0,0.81,0.17,1.09,0.47
				c0.28,0.3,0.43,0.7,0.41,1.11c-0.07,1.26-0.11,2.37-0.11,3.39v60.18l0.01,0.24c0,0.41-0.16,0.81-0.46,1.1
				c-0.28,0.27-0.65,0.42-1.04,0.42c-0.02,0-1.04-0.03-1.04-0.03c-0.1,0.02-0.2,0.03-0.31,0.03c-0.02,0-0.04,0-0.06,0
				c-2.37-0.11-4.78-0.16-7.38-0.17c-18.58,0.08-37.46,3.13-56.09,9.06c-0.15,0.05-0.3,0.07-0.46,0.07c-0.16,0-0.31-0.02-0.46-0.07
				l0,0c-0.15,0.05-0.31,0.07-0.46,0.07c-0.63,0-1.21-0.4-1.42-1.03L617,343.1c-0.26-0.78,0.16-1.63,0.94-1.89
				c16.59-5.6,33.75-8.87,52.42-9.97v-24.4c-15.98,0.37-80.75,5.16-138.67,56.69C531.41,363.78,531.06,363.91,530.7,363.91z"/>
			<path class="st12" d="M690.38,286.69c-0.06,1.15-0.11,2.31-0.11,3.48v60.18c0,0.08,0.01,0.17,0.01,0.25
				c-0.45-0.02-0.89-0.03-1.34-0.04c0,0.02,0,0.03,0,0.04c-2.48-0.11-4.96-0.16-7.44-0.17c-18.82,0.09-37.66,3.12-56.55,9.13
				c-0.03-0.09-0.06-0.17-0.09-0.26c-0.28,0.09-0.56,0.17-0.83,0.26c-1.86-5.62-3.7-11.18-5.61-16.93c17.39-5.87,35.13-9,53.44-9.98
				v-27.34c-28.28,0.24-88.79,10.5-141.16,57.1c-0.05-0.05-0.09-0.1-0.14-0.15c-0.06,0.05-0.12,0.1-0.18,0.15
				c-3.88-4.37-7.76-8.74-11.84-13.33c2.2-1.9,4.24-3.73,6.36-5.49c34.92-28.93,74.68-47.05,119.4-53.87
				c8.36-1.27,16.85-1.72,25.28-2.57c0.89-0.09,1.76-0.3,2.64-0.46h1.23h15.58H690.38 M690.38,283.69h-1.34h-15.58h-1.23
				c-0.18,0-0.35,0.02-0.53,0.05c-0.3,0.05-0.6,0.11-0.9,0.17c-0.54,0.11-1.06,0.21-1.52,0.26c-2.72,0.27-5.51,0.51-8.21,0.74
				c-5.65,0.48-11.48,0.98-17.22,1.85c-44.76,6.82-85.43,25.17-120.86,54.52c-1.47,1.22-2.86,2.44-4.34,3.73
				c-0.68,0.59-1.36,1.19-2.06,1.8c-0.61,0.52-0.98,1.27-1.03,2.07c-0.05,0.8,0.22,1.59,0.75,2.19l2.48,2.8l9.36,10.54
				c0.53,0.6,1.28,0.96,2.07,1c0.06,0,0.11,0,0.17,0c0.06,0,0.11,0,0.17,0c0.05,0,0.1,0,0.15,0c0.71,0,1.42-0.25,1.99-0.76
				c55.84-49.68,118.06-55.63,136.17-56.27v21.45c-18.26,1.19-35.11,4.46-51.4,9.96c-1.56,0.53-2.41,2.22-1.89,3.79l2.53,7.63
				l3.08,9.3c0.42,1.26,1.59,2.06,2.85,2.06c0.15,0,0.31-0.01,0.46-0.04c0.15,0.02,0.3,0.04,0.46,0.04c0.3,0,0.61-0.05,0.91-0.14
				c18.49-5.88,37.21-8.91,55.66-8.99c2.51,0.01,4.97,0.06,7.29,0.17c0.04,0,0.09,0,0.13,0c0.14,0,0.28-0.01,0.42-0.03l0.05,0
				c0.24,0.01,0.49,0.01,0.73,0.02c0.04,0,0.09,0,0.13,0c0.77,0,1.52-0.3,2.08-0.84c0.59-0.57,0.92-1.36,0.92-2.18
				c0-0.08,0-0.15-0.01-0.23l0-60.19c0-0.99,0.03-2.08,0.1-3.31c0.05-0.82-0.25-1.63-0.82-2.23
				C691.99,284.03,691.2,283.69,690.38,283.69L690.38,283.69z M690.38,289.69L690.38,289.69L690.38,289.69L690.38,289.69z"/>
		</g>
		<g>
			<path class="st11" d="M666.58,734.72c-16.51-1.1-32.92-4.33-48.75-9.62c-24.88-8.3-47.77-21.43-68.04-39.03
				c-0.62-0.54-0.69-1.49-0.15-2.11l11.67-13.54c0.26-0.3,0.63-0.49,1.03-0.52c0.04,0,0.07,0,0.11,0c0.08,0,0.17,0.01,0.25,0.02
				c0.09-0.02,0.18-0.03,0.28-0.03c0.34,0,0.69,0.12,0.97,0.36c12.44,10.61,25.16,19.04,38.85,25.72l9.23-22.38
				c-45.65-24.51-73.63-61.46-83.19-109.84c-9.62-48.73,2.09-93.59,34.84-133.36l-17.01-17.13c-10.07,11.31-18.87,24.27-26.17,38.54
				c-0.27,0.52-0.79,0.82-1.34,0.82c-0.04,0-0.08,0-0.12-0.01c-0.04,0-0.08,0.01-0.13,0.01c-0.22,0-0.45-0.05-0.67-0.16l-15.92-8.01
				c-0.74-0.37-1.04-1.27-0.67-2.01c9.63-19.25,22.22-36.78,37.42-52.11c15.21-15.34,32.65-28.07,51.82-37.85
				c0.21-0.11,0.45-0.16,0.68-0.16c0.12,0,0.24,0.01,0.35,0.04c0.12-0.03,0.24-0.04,0.36-0.04c0.16,0,0.32,0.02,0.47,0.08
				c0.38,0.12,0.69,0.4,0.87,0.75l8.03,16.01c0.37,0.73,0.08,1.63-0.65,2.01c-14.39,7.4-27.42,16.29-38.74,26.44l17.15,17.14
				c29.55-25.26,63.71-38.06,101.53-38.06l0.53,0.01l0.79-0.01c1.92,0,5.49,0.04,8.62,0.11c0.82,0.02,1.48,0.69,1.47,1.52
				c-0.05,4.46-0.04,9-0.03,13.39l0.01,4.59c0,0.42-0.17,0.81-0.48,1.1c-0.28,0.26-0.65,0.4-1.02,0.4c-0.03,0-0.07,0-0.1,0
				c-2.88-0.2-5.81-0.3-8.69-0.3c-13.79,0-27.82,2.28-41.72,6.77l9.29,22.44c0.34-0.09,0.71-0.18,1.08-0.28
				c6.55-1.69,18.75-4.84,33.75-4.84c2.17,0,4.35,0.07,6.49,0.2c0.72,0.04,1.3,0.59,1.4,1.3c0.78,5.82,0.57,10.23,0.25,16.9
				l-0.09,1.91c-0.04,0.8-0.7,1.43-1.5,1.43c-0.02,0-0.04,0-0.06,0c-1.39-0.05-2.79-0.08-4.17-0.08c-23.23,0-45.54,7.68-62.83,21.63
				c-5.58,4.85-10.75,10.59-15.3,17.04c-4.72,6.69-8.46,13.92-11.1,21.48l-0.11,0.32c-1.59,4.56-4.78,13.67-4.37,18.77
				c0.99-0.01,1.99-0.02,2.98-0.02c9.17,0,18.42,0.56,27.37,1.11c4.47,0.27,9.07,0.55,13.64,0.76c-0.01-9.21,0.52-13.73,0.98-17.75
				c0.39-3.34,0.75-6.5,0.77-11.93c0-0.28,0.08-0.55,0.22-0.78c4.02-6.56,15.36-12.97,20.88-12.97c1.39,0,2.44,0.39,3.14,1.17
				c0.43,0.48,0.92,1.34,0.77,2.71c-5.05,46.75-4.66,81.95-4.4,105.25c0.04,4.05,0.09,7.91,0.1,11.4
				c5.58,0.12,25.42,0.54,30.58,0.54c0.3,0,0.77,0,0.77,0c0.4,0,0.78,0.16,1.06,0.44c0.29,0.29,0.45,0.67,0.44,1.08
				c-0.03,2.73-0.08,4.99-0.13,7.1c-0.09,4.14-0.18,7.72-0.05,13.09c0.01,0.45-0.18,0.87-0.51,1.17c-0.27,0.24-0.63,0.37-0.99,0.37
				c-0.02,0-0.06,0-0.06,0c-0.38,0-1.42,0.01-3,0.03c-5.15,0.05-15.87,0.16-26.19,0.16c-26.24,0-26.26-0.38-26.35-2.22
				c-0.61-12.08-0.39-23.88-0.14-37.55c0.21-11.74,0.46-25,0.15-40.16c-4.97-0.23-23.5-0.88-41.95-1.49l1.97,11.75
				c0.13,0.77-0.35,1.51-1.1,1.7l-17.16,4.43c-0.12,0.03-0.25,0.05-0.38,0.05c-0.1,0-0.2-0.01-0.3-0.03
				c-0.1,0.02-0.21,0.03-0.31,0.03c-0.27,0-0.54-0.07-0.77-0.21c-0.35-0.21-0.59-0.54-0.69-0.94c-6.12-25.48-3.97-50.07,6.37-73.1
				c10.12-22.54,26.5-40.2,48.7-52.52l-9.28-22.57c-38.82,21.52-62.59,53.34-70.66,94.61c-8.06,41.23,1.8,79.4,29.31,113.48
				l17.05-17.22c0.17-0.17,0.38-0.3,0.61-0.37c1-0.32,1.92-0.8,2.74-1.44c0.27-0.21,0.6-0.31,0.92-0.31c0.44,0,0.88,0.19,1.17,0.56
				c3.28,4.12,6.47,8.4,9.55,12.55l1.25,1.69c0.44,0.59,0.39,1.42-0.13,1.94c-0.14,0.15-0.31,0.26-0.49,0.34l-12.79,12.97
				c0.04,0.44-0.12,0.87-0.43,1.18l-3.82,3.85c26.77,21.66,54.89,32.2,85.91,32.2c4.02,0,8.16-0.18,12.29-0.54
				c0.04,0,0.09-0.01,0.13-0.01c0.42,0,0.82,0.17,1.1,0.48c0.31,0.34,0.45,0.81,0.38,1.27c-0.7,4.19-0.51,8.46-0.31,12.97
				c0.07,1.62,0.15,3.3,0.18,4.97c0.01,0.8-0.6,1.47-1.4,1.52c-3.67,0.25-7.32,0.38-10.83,0.38c-0.49,0-1.56-0.01-1.56-0.01
				l-1.41,0.01c-0.24,0-0.48,0-0.72-0.01c-15.79-0.27-30.86-2.86-46.04-7.9l-9.37,22.58c14.28,5.09,29.48,8.23,46.41,9.59
				c0.82,0.07,1.43,0.78,1.38,1.6l-1.23,17.82c-0.05,0.79-0.71,1.4-1.49,1.4c-0.03,0-0.07,0-0.1,0c-0.22-0.01-0.44-0.03-0.66-0.05
				l-0.05,0c-0.13,0.04-0.27,0.07-0.4,0.07C666.63,734.72,666.61,734.72,666.58,734.72z"/>
			<path class="st12" d="M592.3,353.81c2.69,5.35,5.31,10.59,8.03,16.01c-14.8,7.61-28.23,16.76-40.23,27.72
				c6.48,6.47,12.8,12.8,19.25,19.24c29.08-25.24,62.96-38.61,101.61-38.61c0.01,0,0.02,0,0.03,0c0.17,0,0.33,0.01,0.5,0.01
				c0.26,0,0.52-0.01,0.79-0.01c0,0,0,0,0,0c1.92,0,5.51,0.04,8.59,0.11c-0.07,6-0.03,12-0.02,18c-2.94-0.2-5.87-0.3-8.79-0.3
				c-14.69,0-29.25,2.5-43.73,7.35c3.55,8.57,6.98,16.87,10.4,25.13c6.03-1.48,18.99-5.39,35.73-5.39c2.08,0,4.21,0.06,6.4,0.19
				c0.83,6.21,0.51,10.71,0.14,18.55c-1.42-0.05-2.83-0.08-4.23-0.08c-26.07,0-48,9.24-63.77,21.96
				c-5.72,4.96-10.91,10.73-15.58,17.35c-4.75,6.72-8.58,14.08-11.29,21.85c-1.87,5.35-5.59,15.83-4.35,21.11
				c1.42-0.03,2.84-0.04,4.26-0.04c14.21,0,28.3,1.34,42.52,1.93c-0.13-18.27,1.71-18.77,1.74-31.24
				c3.76-6.13,14.7-12.25,19.61-12.25c1.62,0,2.58,0.67,2.41,2.22c-6.06,56.09-4.31,94.89-4.31,118.28c0,0,26.01,0.57,32.08,0.57
				c0.31,0,0.57,0,0.77,0c-0.09,8.12-0.37,12.12-0.18,20.24c-0.01,0-0.04,0-0.1,0c-1.32,0-15.6,0.18-29.15,0.18
				c-12.74,0-24.82-0.16-24.86-0.8c-1.16-23.1,0.72-46.14-0.02-79.04c0-0.15-39.43-1.45-45.21-1.64c0.76,4.56,1.5,8.96,2.27,13.56
				c-5.65,1.46-11.25,2.9-17.16,4.43c-0.01-0.05-0.02-0.1-0.03-0.15c-0.19,0.05-0.38,0.1-0.58,0.15
				c-5.99-24.97-4.13-48.96,6.28-72.13c10.37-23.09,26.96-40.41,49.23-52.46c-3.46-8.42-6.86-16.68-10.43-25.36
				c-39.08,21.19-64.34,52.78-72.88,96.44c-8.49,43.4,2.75,82.07,30.68,116.01c6.27-6.33,12.27-12.39,18.23-18.4
				c1.13-0.36,2.21-0.91,3.2-1.68c3.7,4.64,7.23,9.43,10.77,14.2c-0.03-0.02-0.06-0.05-0.1-0.07c-4.63,4.69-9.28,9.4-14.09,14.28
				c0.16,0.08,0.32,0.18,0.48,0.26c-1.64,1.65-3.3,3.33-4.99,5.02c27.26,22.45,56.12,33.58,88.14,33.58c4.09,0,8.23-0.18,12.42-0.54
				c-1,5.94-0.26,12.05-0.16,18.22c-3.56,0.25-7.13,0.38-10.72,0.38c-0.48,0-0.96,0-1.45-0.01c-0.03,0-0.06,0-0.09,0
				c-0.48,0-0.95,0.01-1.43,0.01c-0.23,0-0.47,0-0.7-0.01c-15.95-0.27-31.51-3-46.91-8.27c-3.49,8.42-6.93,16.7-10.51,25.33
				c15.6,5.73,31.58,8.87,48.28,10.21c-0.41,5.94-0.81,11.72-1.23,17.82c-0.4-0.03-0.79-0.07-1.19-0.1c0,0.03,0,0.07-0.01,0.1
				c-16.66-1.11-32.72-4.32-48.38-9.54c-24.98-8.33-47.39-21.25-67.53-38.74c3.91-4.54,7.73-8.97,11.67-13.54
				c0.1,0.09,0.2,0.17,0.3,0.25c0.07-0.09,0.15-0.17,0.22-0.26c12.45,10.62,25.76,19.54,40.61,26.62
				c3.48-8.44,6.89-16.71,10.35-25.11c-44.61-23.58-73.75-59.48-83.62-109.45c-9.87-49.97,3.08-94.44,35.39-133.16
				c-6.31-6.35-12.61-12.7-19.09-19.22c-10.78,11.89-19.88,25.24-27.45,40.04c-0.06-0.03-0.13-0.06-0.19-0.09
				c-0.02,0.03-0.03,0.06-0.05,0.1c-5.28-2.66-10.48-5.28-15.92-8.01c9.68-19.35,22.07-36.52,37.15-51.73
				c15.09-15.22,32.13-27.72,51.44-37.57c0.05,0.1,0.1,0.19,0.15,0.29C591.92,354,592.11,353.9,592.3,353.81 M692.8,669.54
				L692.8,669.54 M592.3,350.81c-0.12,0-0.24,0.01-0.36,0.02c-0.12-0.01-0.23-0.02-0.35-0.02c-0.47,0-0.94,0.11-1.36,0.33
				c-19.32,9.84-36.88,22.67-52.21,38.13c-15.31,15.44-28,33.1-37.7,52.5c-0.74,1.48-0.14,3.28,1.33,4.02l7.92,3.99l7.99,4.02
				c0.43,0.22,0.89,0.32,1.35,0.32c0.05,0,0.1,0,0.15,0c0.03,0,0.06,0,0.09,0c1.09,0,2.14-0.6,2.67-1.63
				c6.99-13.66,15.36-26.1,24.9-37.03l14.93,15.03c-32.38,39.87-43.92,84.79-34.29,133.55c9.56,48.42,37.4,85.49,82.76,110.23
				l-4.07,9.86l-4.04,9.79c-13.03-6.51-25.2-14.65-37.1-24.81c-0.56-0.48-1.26-0.72-1.95-0.72c-0.1,0-0.19,0-0.29,0.01
				c-0.08-0.01-0.16-0.01-0.23-0.01c-0.84,0-1.68,0.35-2.27,1.04l-11.67,13.54c-1.08,1.25-0.94,3.14,0.31,4.22
				c20.42,17.73,43.48,30.96,68.54,39.32c15.96,5.32,32.48,8.58,49.13,9.69c0.07,0,0.14,0.01,0.2,0.01c0.18,0,0.36-0.02,0.53-0.05
				c0.15,0.01,0.31,0.03,0.46,0.04c0.07,0,0.13,0.01,0.2,0.01c1.56,0,2.88-1.21,2.99-2.79l0.02-0.28l1.21-17.53
				c0.11-1.64-1.11-3.06-2.75-3.2c-16.21-1.3-30.82-4.25-44.54-8.99l2.37-5.71l5.86-14.13c14.87,4.81,29.67,7.28,45.16,7.54
				c0.25,0,0.5,0.01,0.75,0.01l0.73,0l0.7,0l0.09,0c0.47,0,0.96,0.01,1.45,0.01c3.54,0,7.22-0.13,10.93-0.39
				c1.59-0.11,2.82-1.45,2.79-3.04c-0.03-1.69-0.1-3.38-0.18-5.02c-0.2-4.38-0.38-8.53,0.27-12.53c0.04-0.2,0.06-0.41,0.06-0.62
				c0-1.66-1.34-3-3-3h0c0,0,0,0,0,0c-0.01,0-0.02,0-0.03,0c0,0,0,0,0,0c0,0,0,0-0.01,0c0,0,0,0,0,0c0,0,0,0,0,0
				c-0.09,0-0.17,0.01-0.25,0.01c-4.08,0.35-8.16,0.53-12.13,0.53c-30.16,0-57.56-10.09-83.67-30.82l2.65-2.67
				c0.43-0.44,0.72-0.99,0.82-1.58l6.54-6.63l5.69-5.76c0.24-0.14,0.47-0.31,0.67-0.52c1.03-1.06,1.14-2.7,0.26-3.89l-1.27-1.71
				c-3.08-4.15-6.27-8.44-9.56-12.57c-0.59-0.74-1.47-1.13-2.35-1.13c-0.64,0-1.29,0.2-1.83,0.63c-0.68,0.53-1.45,0.93-2.28,1.2
				c-0.46,0.15-0.88,0.4-1.22,0.75l-9.99,10.09l-5.88,5.93c-26.42-33.39-35.83-70.69-27.96-110.94c4.1-20.96,12.32-39.6,24.42-55.39
				c11.18-14.58,25.98-27.14,44.02-37.36l8.13,19.77c-21.9,12.44-38.1,30.12-48.18,52.56c-10.48,23.34-12.66,48.25-6.46,74.06
				c0.19,0.78,0.68,1.46,1.37,1.87c0.47,0.28,1,0.43,1.54,0.43c0.11,0,0.21-0.01,0.32-0.02c0.1,0.01,0.19,0.01,0.29,0.01
				c0.25,0,0.5-0.03,0.75-0.1l2.1-0.54l15.06-3.89c1.51-0.39,2.47-1.87,2.21-3.4l-1.67-9.95c16.37,0.54,32.52,1.1,38.7,1.37
				c0.27,14.55,0.03,27.33-0.17,38.7c-0.25,13.69-0.47,25.52,0.14,37.65c0.14,2.86,3.1,3.09,4.87,3.23c1.34,0.1,3.21,0.19,5.71,0.25
				c4.13,0.11,9.94,0.16,17.27,0.16c10.34,0,21.06-0.11,26.22-0.16c1.58-0.02,2.62-0.03,2.93-0.03l0,0c0.03,0,0.07,0,0.1,0
				c0.72,0,1.43-0.26,1.98-0.75c0.67-0.59,1.04-1.44,1.02-2.33c-0.13-5.34-0.05-8.9,0.05-13.03c0.05-2.15,0.1-4.38,0.13-7.11
				c0.01-0.81-0.31-1.59-0.88-2.16c-0.56-0.56-1.32-0.87-2.12-0.87c-0.02,0-0.03,0-0.05,0c-0.19,0-0.43,0-0.72,0
				c-4.75,0-22.11-0.36-29.09-0.51c-0.02-3.1-0.05-6.45-0.09-9.95c-0.26-23.26-0.65-58.42,4.39-105.07
				c0.21-1.92-0.51-3.17-1.14-3.88c-0.68-0.76-1.97-1.66-4.25-1.66c-6.01,0-17.84,6.64-22.16,13.68c-0.29,0.47-0.44,1.01-0.44,1.56
				c-0.01,5.35-0.37,8.47-0.76,11.76c-0.44,3.82-0.94,8.1-0.99,16.35c-4.04-0.2-8.1-0.44-12.05-0.68
				c-8.97-0.55-18.25-1.11-27.46-1.11c-0.5,0-1.01,0-1.51,0.01c0.2-4.99,3.01-13.01,4.32-16.76l0.11-0.32
				c2.6-7.44,6.27-14.54,10.91-21.11c4.47-6.33,9.54-11.98,15.06-16.77c17.02-13.71,38.98-21.26,61.85-21.26
				c1.36,0,2.74,0.03,4.11,0.08c0.04,0,0.08,0,0.12,0c1.59,0,2.92-1.25,2.99-2.86l0.09-1.93c0.32-6.75,0.54-11.21-0.26-17.16
				c-0.19-1.42-1.36-2.51-2.79-2.6c-2.17-0.13-4.39-0.2-6.58-0.2c-15.06,0-27.29,3.12-33.95,4.84l-5.85-14.14l-2.31-5.58
				c13.25-4.12,26.59-6.21,39.71-6.21c2.85,0,5.74,0.1,8.59,0.29c0.07,0,0.14,0.01,0.2,0.01c0.76,0,1.49-0.29,2.05-0.81
				c0.61-0.57,0.95-1.36,0.95-2.19c0-1.57,0-3.14-0.01-4.7c-0.01-4.35-0.02-8.85,0.03-13.26c0.02-1.64-1.29-3-2.93-3.03
				c-3.15-0.07-6.74-0.11-8.65-0.11c-0.16,0-0.32,0-0.48,0l-0.33,0l-0.16,0c-0.11,0-0.21,0-0.32,0
				c-37.78,0-71.89,12.62-101.48,37.53l-5.99-5.99l-9.05-9.05c10.95-9.63,23.46-18.09,37.24-25.17c1.46-0.75,2.05-2.54,1.31-4.01
				l-5.22-10.41l-2.81-5.6c-0.36-0.71-0.98-1.25-1.74-1.5C592.93,350.86,592.61,350.81,592.3,350.81L592.3,350.81z"/>
		</g>
		<g>
			<path class="st11" d="M474.55,666.69c-0.08,0-0.17-0.01-0.25-0.02c-0.42-0.07-0.79-0.32-1.02-0.68
				c-21.49-33.94-34.54-73.23-37.73-113.62c-0.18-2.33-0.4-4.65-0.62-6.98c-0.1-1.09-0.2-2.17-0.3-3.26c0-0.04-0.01-0.09-0.01-0.14
				v-17.74c0-0.04,0-0.09,0.01-0.13l0.32-3.56c0.23-2.56,0.46-5.12,0.68-7.68c1.74-19.89,5.63-39.2,11.57-57.39
				c0.12-0.38,0.39-0.69,0.75-0.87c0.21-0.11,0.44-0.16,0.68-0.16c0.16,0,0.32,0.02,0.47,0.08c6.03,1.99,12.05,3.75,17.14,5.21
				c0.39,0.11,0.72,0.38,0.91,0.74s0.23,0.78,0.1,1.17c-1.44,4.36-2.77,8.89-3.98,13.47c0.02,0.19,0.01,0.38-0.04,0.57
				c-3.82,14.87-6.23,30.55-7.16,46.64h24.2c0.29-2.31,0.57-4.63,0.85-6.94c0.75-6.25,1.52-12.71,2.67-19.01
				c1.14-6.23,2.63-12.24,4.21-18.6c0.68-2.74,1.37-5.51,2.02-8.3c0.1-0.41,0.36-0.75,0.72-0.96c0.23-0.13,0.48-0.2,0.74-0.2
				c0.02,0,0.07,0,0.08,0c0.15,0,0.31,0.02,0.46,0.07l17.14,5.71c0.76,0.25,1.19,1.07,0.97,1.84c-9.39,32.29-11.22,63.41-5.45,92.5
				c5.78,29.14,19.39,57.21,40.45,83.41c0.5,0.63,0.42,1.54-0.19,2.07l-13.34,11.59c-0.27,0.24-0.62,0.37-0.98,0.37
				c-0.04,0-0.13-0.01-0.14-0.01c-0.06,0.01-0.12,0.01-0.18,0.01c-0.04,0-0.08,0-0.12,0c-0.4-0.03-0.77-0.22-1.03-0.53
				c-29.32-34.88-45.66-75.74-48.56-121.47h-24.16c0.51,31.63,9.81,65.86,26.26,96.59c0.02,0.04,0.04,0.08,0.06,0.13
				c2.12,3.93,4.33,7.77,6.58,11.43c0.35,0.58,0.28,1.32-0.18,1.81c-3.95,4.23-8.42,8.32-13.67,12.52
				C475.22,666.58,474.89,666.69,474.55,666.69z"/>
			<path class="st12" d="M448.63,455.96c5.69,1.88,11.45,3.58,17.2,5.23c-1.53,4.65-2.92,9.37-4.15,14.14c0.04,0,0.07,0,0.11-0.01
				c-3.99,15.51-6.42,31.68-7.29,48.51h27.11c0.02-0.15,0.04-0.31,0.06-0.46c1.16-8.9,2-17.89,3.61-26.73
				c1.63-8.92,4.06-17.7,6.21-26.83c0.02,0.01,0.04,0.01,0.06,0.02c0-0.01,0-0.01,0.01-0.02c6.21,2.07,11.77,3.92,17.14,5.71
				c-18.98,65.29-7.38,124.18,35.27,177.27c-4.28,3.72-8.7,7.56-13.34,11.59c-0.04-0.05-0.09-0.1-0.13-0.16
				c-0.06,0.05-0.12,0.11-0.18,0.16c-29.68-35.3-45.65-75.87-48.3-122.01h-27.09c0.23,31.35,9.01,66.22,26.45,98.8
				c0,0-0.01,0-0.01,0c2.11,3.91,4.34,7.8,6.7,11.63c-4.18,4.48-8.74,8.56-13.51,12.37c-21.12-33.36-34.26-71.91-37.5-112.93
				c-0.27-3.42-0.62-6.84-0.93-10.26v-17.74c0.33-3.75,0.68-7.5,1-11.25C438.87,493.1,442.71,474.09,448.63,455.96 M448.63,452.96
				c-0.47,0-0.93,0.11-1.35,0.32c-0.71,0.36-1.25,0.99-1.5,1.75c-5.98,18.29-9.89,37.72-11.64,57.72c-0.22,2.56-0.45,5.12-0.68,7.67
				l-0.32,3.57c-0.01,0.09-0.01,0.18-0.01,0.27V542c0,0.09,0,0.18,0.01,0.27c0.1,1.09,0.2,2.18,0.3,3.27
				c0.21,2.28,0.44,4.64,0.62,6.95c3.21,40.63,16.33,80.15,37.95,114.3c0.46,0.72,1.2,1.21,2.04,1.35c0.16,0.03,0.33,0.04,0.5,0.04
				c0.68,0,1.34-0.23,1.87-0.66c5.31-4.25,9.83-8.39,13.83-12.67c0.92-0.99,1.07-2.47,0.36-3.62c-2.22-3.61-4.41-7.41-6.51-11.29
				c-0.03-0.06-0.06-0.12-0.09-0.18c-16.08-30.03-25.28-63.42-26.05-94.38h21.22c1.55,22.28,6.27,43.52,14.04,63.17
				c8.12,20.54,19.82,39.97,34.78,57.77c0.52,0.62,1.26,1,2.07,1.06c0.08,0.01,0.15,0.01,0.23,0.01c0.07,0,0.13,0,0.2-0.01
				c0.04,0,0.08,0,0.11,0c0.72,0,1.42-0.26,1.97-0.74l13.34-11.59c1.22-1.06,1.38-2.89,0.37-4.14
				c-20.9-26.02-34.41-53.86-40.15-82.77c-5.73-28.85-3.9-59.73,5.42-91.79c0.45-1.55-0.4-3.17-1.93-3.68l-17.14-5.71
				c-0.31-0.1-0.63-0.15-0.95-0.15c-0.08,0-0.16,0-0.25,0.01c-0.44,0.03-0.88,0.15-1.27,0.37c-0.74,0.41-1.27,1.11-1.46,1.93
				c-0.66,2.79-1.35,5.58-2.02,8.29c-1.51,6.1-3.08,12.41-4.22,18.69c-1.16,6.35-1.93,12.84-2.68,19.11
				c-0.22,1.85-0.45,3.74-0.68,5.62h-21.29c0.99-15.43,3.35-30.48,7.02-44.76c0.07-0.25,0.1-0.51,0.09-0.77
				c1.18-4.48,2.49-8.91,3.9-13.18c0.26-0.78,0.18-1.62-0.2-2.34c-0.38-0.72-1.04-1.26-1.83-1.48c-5.08-1.45-11.08-3.21-17.08-5.19
				C449.26,453.01,448.95,452.96,448.63,452.96L448.63,452.96z"/>
		</g>
		<g>
			<path class="st11" d="M684.53,781.18c-3.13,0-5.9-0.09-8.47-0.28c-1.27-0.09-2.54-0.19-3.81-0.29
				c-4.63-0.36-9.42-0.73-14.12-0.83c-0.04,0-0.08,0-0.11-0.01c-2.23-0.21-4.46-0.44-6.69-0.69c-24.94-2.88-49.22-9.7-72.16-20.27
				c-10.5-4.84-20.79-10.49-30.58-16.8c-0.26-0.17-0.46-0.41-0.57-0.69c-2.32-1.5-4.39-2.88-6.28-4.19
				c-0.61-0.42-0.82-1.23-0.49-1.9c2.33-4.73,5.24-10.62,8.52-16.05c0.21-0.36,0.57-0.61,0.97-0.69c0.1-0.02,0.21-0.03,0.31-0.03
				c0.31,0,0.61,0.09,0.86,0.27c21.28,14.96,45.12,26.11,70.84,33.15c13.1,3.58,25.48,5.93,37.84,7.16
				c7.05,0.68,14.18,1.02,21.2,1.02c0.71,0,1.41,0,2.11-0.01c2.67-0.03,5.29-0.11,7.78-0.23c0.02,0,0.05,0,0.07,0
				c0.38,0,0.75,0.15,1.03,0.41c0.3,0.28,0.47,0.67,0.47,1.07c0.04,3.68,0.12,7.36,0.2,11.04c0.04,1.94,0.08,3.89,0.12,5.83
				c0.46,0.36,0.53,0.87,0.53,1.14c0,0.19-0.05,0.45-0.18,0.7c-0.18,0.6-0.73,1.04-1.39,1.06c-2.07,0.07-4.17,0.11-6.24,0.11
				l-1.14,0L684.53,781.18z"/>
			<path class="st12" d="M551.03,719.96c20.46,14.38,44.21,25.95,71.31,33.37c13.19,3.61,25.69,5.97,38.08,7.21
				c7.18,0.69,14.3,1.03,21.35,1.03c0.71,0,1.42,0,2.12-0.01c2.6-0.03,5.21-0.11,7.84-0.23c0.07,5.96,0.23,11.92,0.33,17.88
				c-0.54,0.04,0.93,0.08,0.39,0.13c0,0.08,0,0.17,0,0.25c-2.07,0.07-4.13,0.1-6.19,0.11c-0.13,0-0.25,0-0.38,0
				c-0.02,0-0.03,0-0.05,0c-0.23,0-0.47,0-0.7,0c-0.14,0-0.29,0-0.43,0c-0.06,0-0.11,0-0.17,0c-2.78,0-5.55-0.07-8.37-0.28
				c-6-0.44-12-1-18.01-1.13c-2.22-0.21-4.44-0.43-6.66-0.69c-24.95-2.88-48.87-9.62-71.7-20.14c-10.61-4.89-20.75-10.49-30.4-16.7
				c0.06-0.07,0.13-0.13,0.19-0.2c-2.36-1.52-4.7-3.06-7-4.65C545.24,730.5,547.92,725.11,551.03,719.96 M551.03,716.96
				c-0.21,0-0.41,0.02-0.62,0.06c-0.81,0.17-1.52,0.67-1.95,1.38c-3.31,5.48-6.23,11.4-8.58,16.16c-0.66,1.33-0.24,2.95,0.98,3.79
				c1.82,1.26,3.8,2.58,6,4.01c0.23,0.36,0.53,0.66,0.9,0.9c9.85,6.34,20.2,12.03,30.76,16.9c23.08,10.64,47.51,17.5,72.61,20.4
				c2.3,0.27,4.59,0.49,6.72,0.7c0.07,0.01,0.15,0.01,0.22,0.01c4.66,0.1,9.42,0.47,14.03,0.83c1.28,0.1,2.55,0.2,3.83,0.29
				c2.61,0.19,5.42,0.29,8.59,0.29l0.17,0l0.43,0l0.36,0l0.34,0c0.01,0,0.07,0,0.08,0l0.16,0l0.23,0c2.08,0,4.19-0.04,6.26-0.11
				c1.25-0.04,2.3-0.84,2.71-1.95c0.2-0.41,0.31-0.87,0.31-1.31c0-0.16-0.02-0.98-0.54-1.74c-0.03-1.77-0.07-3.53-0.11-5.3
				c-0.08-3.61-0.16-7.33-0.2-10.99c-0.01-0.81-0.35-1.59-0.94-2.15c-0.56-0.53-1.29-0.82-2.06-0.82c-0.05,0-0.09,0-0.14,0
				c-2.5,0.12-5.03,0.19-7.73,0.23c-0.69,0.01-1.39,0.01-2.09,0.01c-6.97,0-14.06-0.34-21.07-1.01
				c-12.26-1.22-24.56-3.55-37.58-7.11c-25.55-6.99-49.23-18.07-70.37-32.93C552.25,717.15,551.65,716.96,551.03,716.96
				L551.03,716.96z"/>
		</g>
	</g>
</g>
<g id="Layer_16">
	<path class="st12" d="M749.25,527.78c-0.6-0.91-1.06-1.55-1.47-2.21c-9.4-15.05-18.79-30.11-28.18-45.16
		c-0.21-0.34-0.42-0.68-0.64-1.02c-2.23-3.5-4.71-4.13-8.28-2.09c-0.13,0.07-0.29,0.1-0.75,0.25c-0.04-0.96-0.1-1.85-0.1-2.75
		c-0.01-19.75,0.01-39.5-0.01-59.25c-0.02-20.31-0.09-40.62-0.12-60.93c-0.03-21.91-0.04-43.82-0.06-65.72
		c0-0.63,0.05-1.26,0.1-2.15c1.57-0.3,3.11-0.75,4.67-0.85c10.64-0.74,21.29-0.71,31.69,1.87c4.15,1.03,8.03,0.99,12.19,0.35
		c12.64-1.93,24.51,0.42,35.27,7.48c1.77,1.16,3.43,2.67,4.72,4.34c1.97,2.55,4.48,3.64,7.5,3.42c22.95-1.68,41.61,7.07,57.16,23.4
		c3.98,4.18,7.57,8.66,10.65,13.56c2.33,3.71,4.82,7.34,7.23,10.99c2.78-0.44,5.36-0.99,7.97-1.23c9.24-0.85,18.04,0.94,26.19,5.29
		c21.98,11.72,36.97,29.12,42.86,53.71c2.54,10.6,2.16,21.09-1.75,31.34c-0.9,2.35-0.59,4.13,1.31,5.99
		c12.76,12.45,22.18,27,27.25,44.2c3.62,12.25,4.73,24.74,3.84,37.47c-0.77,10.92-2.83,21.52-6.92,31.7
		c-4.79,11.94-11.72,22.53-20.58,31.82c-1.85,1.94-4.16,3.46-6.38,5.01c-1.68,1.18-1.79,1.07-1.37,3.22
		c1.39,7.08,2.18,14.21,2.02,21.44c-0.37,16.43-5.39,31.38-14.3,45.09c-10.25,15.78-24.36,26.66-42.05,32.96
		c-0.38,0.13-0.74,0.34-1.13,0.4c-1.85,0.29-2.56,1.49-3,3.21c-2.9,11.18-7.7,21.45-14.66,30.72c-8.3,11.07-19.24,17.49-32.88,19.56
		c-8.78,1.33-17.59,2.29-26.48,2.24c-1.83-0.01-3.89-0.65-5.43,0c-1.54,0.64-2.46,2.65-3.83,3.85c-2.4,2.09-4.77,4.3-7.47,5.96
		c-7.14,4.38-14.51,4.39-21.86,0.36c-4.34-2.38-7.86-5.73-11.06-9.46c-0.78-0.91-1.52-1.85-2.42-2.94c-2.24,0.67-4.5,1.34-6.91,2.06
		c0.14,0.63,0.23,1.15,0.36,1.67c0.31,1.24,0.69,2.46,0.93,3.72c1.13,5.87-0.96,10.76-5.99,14.04c-3.61,2.36-7.66,3.57-11.85,4.32
		c-8.17,1.47-16.39,1.34-24.62,0.67c-3.42-0.28-6.83-0.68-10.57-1.05c0-0.99,0-1.84,0-2.68c-0.01-23.35-0.03-46.7-0.04-70.05
		c-0.01-22.87,0.02-45.74-0.09-68.61c-0.02-3.26-0.56-7.86,0.41-11.32c2.9,0.92,2.7,5.47,9.84,4.98c6.54-1.01,6.64-9.45,6.68-11.71
		c0.17-8.15,0.33-16.3,0.52-24.46c0.39-17.42,0.8-34.84,1.2-52.26c0.02-0.72,0.03-1.44,0.15-2.15c0.23-1.42,1.13-2.28,2.48-2.61
		c1.28-0.31,2.37,0.14,3.16,1.2c0.38,0.51,0.7,1.07,1.04,1.61c4.52,7.17,9.05,14.33,13.54,21.51c1.08,1.72,2.4,2.96,4.54,3.07
		c2.34,0.12,3.9-1.02,5.14-2.9c3.51-5.35,7.07-10.66,10.61-15.99c0.35-0.53,0.69-1.09,1.12-1.56c0.8-0.87,1.77-1.38,2.99-1.03
		c1.33,0.38,2.28,1.21,2.46,2.63c0.17,1.35,0.26,2.71,0.32,4.06c0.39,8.62,0.74,17.25,1.14,25.87c0.72,15.57,1.5,31.14,2.18,46.71
		c0.11,2.52,1.24,4.23,3.25,5.5c2.35,1.48,4.91,2.3,7.7,2.31c3.56,0.02,6.06-1.65,7.43-4.97c1.13-2.73,1.26-5.61,1.16-8.48
		c-0.36-9.75-0.78-19.49-1.21-29.23c-0.71-15.89-1.53-31.78-2.17-47.67c-0.49-12.14-0.72-24.29-1.17-36.43
		c-0.29-7.91-0.66-15.82-2.35-23.58c-0.37-1.71-0.87-3.42-1.58-5.01c-1.77-3.98-4.47-4.2-6.92-0.66c-0.36,0.52-0.69,1.08-1.02,1.63
		c-9.29,15.21-18.57,30.43-27.88,45.63c-0.79,1.29-1.71,2.52-2.72,3.64C751.24,526.42,750.26,526.99,749.25,527.78z M914.47,657.22
		c0.16-0.16,0.32-0.32,0.48-0.48c0.16-0.16,0.33-0.33,0.49-0.49c0.16-0.16,0.32-0.32,0.48-0.48c0.05-0.09,0.11-0.17,0.16-0.26
		c-0.09,0.06-0.17,0.11-0.26,0.17c-0.16,0.16-0.32,0.32-0.48,0.48c-0.16,0.16-0.33,0.33-0.49,0.49c-0.16,0.16-0.32,0.32-0.48,0.48
		c-0.05,0.09-0.11,0.17-0.16,0.26C914.3,657.33,914.39,657.27,914.47,657.22z M913.45,658.56c-0.06,0.08-0.12,0.16-0.18,0.24
		c0.08-0.06,0.16-0.12,0.24-0.18c0.06-0.08,0.11-0.16,0.17-0.24C913.6,658.45,913.52,658.51,913.45,658.56z"/>
</g>
</svg>
